<svg xmlns="http://www.w3.org/2000/svg" xmlns:xlink="http://www.w3.org/1999/xlink" width="1920" zoomAndPan="magnify" viewBox="0 0 1440 479.999983" height="640" preserveAspectRatio="xMidYMid meet" version="1.2"><defs><clipPath id="294f094ab5"><path d="M 0.160156 40 L 436.960938 40 L 436.960938 244 L 0.160156 244 Z M 0.160156 40 "/></clipPath><clipPath id="eca45a2c79"><path d="M 163 194 L 269 194 L 269 279.953125 L 163 279.953125 Z M 163 194 "/></clipPath><clipPath id="467a9b16e7"><path d="M 301 85 L 436.960938 85 L 436.960938 233 L 301 233 Z M 301 85 "/></clipPath><clipPath id="33a8af4e4f"><path d="M 301 85 L 436.960938 85 L 436.960938 233 L 301 233 Z M 301 85 "/></clipPath><clipPath id="7e7b763ca7"><path d="M 266 4 L 353 4 L 353 73 L 266 73 Z M 266 4 "/></clipPath><clipPath id="1df4725a5c"><path d="M 255.566406 31.570312 L 334.992188 -8.03125 L 357.800781 37.710938 L 278.375 77.3125 Z M 255.566406 31.570312 "/></clipPath><clipPath id="0e339c5949"><path d="M 255.566406 31.570312 L 334.992188 -8.03125 L 357.800781 37.710938 L 278.375 77.3125 Z M 255.566406 31.570312 "/></clipPath><clipPath id="a3d95e7f47"><path d="M 275 18 L 353 18 L 353 73 L 275 73 Z M 275 18 "/></clipPath><clipPath id="c6d9e17977"><path d="M 255.566406 31.570312 L 334.992188 -8.03125 L 357.800781 37.710938 L 278.375 77.3125 Z M 255.566406 31.570312 "/></clipPath><clipPath id="3fdd1c4a2f"><path d="M 255.566406 31.570312 L 334.992188 -8.03125 L 357.800781 37.710938 L 278.375 77.3125 Z M 255.566406 31.570312 "/></clipPath><clipPath id="cbeac2a66c"><path d="M 304 35 L 316 35 L 316 48 L 304 48 Z M 304 35 "/></clipPath><clipPath id="b124e5eef9"><path d="M 255.566406 31.570312 L 334.992188 -8.03125 L 357.800781 37.710938 L 278.375 77.3125 Z M 255.566406 31.570312 "/></clipPath><clipPath id="d42f233843"><path d="M 255.566406 31.570312 L 334.992188 -8.03125 L 357.800781 37.710938 L 278.375 77.3125 Z M 255.566406 31.570312 "/></clipPath><clipPath id="432211a384"><path d="M 326 70 L 351 70 L 351 88 L 326 88 Z M 326 70 "/></clipPath><clipPath id="68998b55fb"><path d="M 352.589844 76.617188 L 331.402344 87.6875 L 326.574219 78.445312 L 347.761719 67.375 Z M 352.589844 76.617188 "/></clipPath><clipPath id="a014d004b1"><path d="M 352.589844 76.617188 L 307.511719 100.171875 L 302.683594 90.929688 L 347.761719 67.375 Z M 352.589844 76.617188 "/></clipPath><clipPath id="d83761497b"><path d="M 352.578125 76.621094 L 307.433594 100.210938 L 302.59375 90.949219 L 347.742188 67.363281 Z M 352.578125 76.621094 "/></clipPath><clipPath id="5157a2bd05"><path d="M 312.695312 40.074219 L 359.382812 40.074219 L 359.382812 55 L 312.695312 55 Z M 312.695312 40.074219 "/></clipPath><clipPath id="051d515b17"><path d="M 355.4375 48.054688 C 339.644531 48.410156 324.03125 50.421875 321.511719 50.851562 C 321.03125 50.953125 320.851562 50.878906 320.675781 51.054688 C 320.445312 51.285156 320.597656 51.921875 320.445312 52.328125 C 320.316406 52.707031 320.113281 53.117188 319.859375 53.445312 C 319.605469 53.777344 319.277344 54.082031 318.917969 54.3125 C 318.5625 54.539062 318.15625 54.71875 317.75 54.84375 C 317.34375 54.945312 316.910156 54.996094 316.476562 54.972656 C 316.070312 54.945312 315.640625 54.84375 315.230469 54.691406 C 314.851562 54.539062 314.46875 54.285156 314.164062 54.03125 C 313.832031 53.75 313.554688 53.394531 313.324219 53.039062 C 313.121094 52.683594 312.96875 52.277344 312.867188 51.84375 C 312.789062 51.4375 312.765625 51.003906 312.816406 50.574219 C 312.867188 50.164062 312.996094 49.734375 313.171875 49.351562 C 313.351562 48.96875 313.605469 48.613281 313.882812 48.308594 C 314.164062 48.003906 314.546875 47.722656 314.902344 47.546875 C 315.28125 47.34375 315.714844 47.214844 316.121094 47.140625 C 316.527344 47.0625 316.988281 47.089844 317.394531 47.140625 C 317.800781 47.214844 318.234375 47.367188 318.589844 47.570312 C 318.96875 47.777344 319.328125 48.03125 319.605469 48.335938 C 319.886719 48.640625 320.140625 49.023438 320.316406 49.402344 C 320.496094 49.785156 320.597656 50.214844 320.648438 50.625 C 320.699219 51.054688 320.675781 51.488281 320.574219 51.921875 C 320.46875 52.328125 320.316406 52.734375 320.089844 53.089844 C 319.859375 53.445312 319.582031 53.777344 319.25 54.058594 C 318.945312 54.335938 318.5625 54.566406 318.15625 54.71875 C 317.773438 54.871094 317.34375 54.945312 316.910156 54.972656 C 316.503906 54.996094 316.046875 54.945312 315.640625 54.820312 C 315.230469 54.71875 314.851562 54.515625 314.496094 54.285156 C 314.136719 54.03125 313.832031 53.726562 313.578125 53.394531 C 313.324219 53.066406 313.121094 52.65625 312.996094 52.277344 C 312.839844 51.871094 312.6875 51.539062 312.789062 51.003906 C 313.019531 49.886719 314.621094 47.496094 315.816406 46.171875 C 316.910156 45.003906 318.132812 44.039062 319.53125 43.425781 C 321.03125 42.792969 322.402344 42.867188 324.589844 42.5625 C 328.632812 41.953125 338.144531 40.859375 341.882812 40.476562 C 343.6875 40.300781 344.273438 40.222656 345.902344 40.171875 C 348.394531 40.070312 353.910156 40.070312 355.4375 40.171875 C 355.921875 40.195312 356.046875 40.171875 356.378906 40.273438 C 356.886719 40.425781 357.597656 40.757812 358.054688 41.164062 C 358.515625 41.570312 358.921875 42.15625 359.125 42.714844 C 359.355469 43.273438 359.429688 43.984375 359.355469 44.597656 C 359.277344 45.179688 358.945312 45.917969 358.691406 46.351562 C 358.488281 46.65625 358.285156 46.859375 358.054688 47.0625 C 357.828125 47.265625 357.597656 47.445312 357.269531 47.597656 C 356.808594 47.828125 355.4375 48.054688 355.4375 48.054688 "/></clipPath><clipPath id="3421b5149d"><path d="M 0.695312 0.0742188 L 47.382812 0.0742188 L 47.382812 15 L 0.695312 15 Z M 0.695312 0.0742188 "/></clipPath><clipPath id="363d658d2d"><path d="M 43.4375 8.054688 C 27.644531 8.410156 12.03125 10.421875 9.511719 10.851562 C 9.03125 10.953125 8.851562 10.878906 8.675781 11.054688 C 8.445312 11.285156 8.597656 11.921875 8.445312 12.328125 C 8.316406 12.707031 8.113281 13.117188 7.859375 13.445312 C 7.605469 13.777344 7.277344 14.082031 6.917969 14.3125 C 6.5625 14.539062 6.15625 14.71875 5.75 14.84375 C 5.34375 14.945312 4.910156 14.996094 4.476562 14.972656 C 4.070312 14.945312 3.640625 14.84375 3.230469 14.691406 C 2.851562 14.539062 2.46875 14.285156 2.164062 14.03125 C 1.832031 13.75 1.554688 13.394531 1.324219 13.039062 C 1.121094 12.683594 0.96875 12.277344 0.867188 11.84375 C 0.789062 11.4375 0.765625 11.003906 0.816406 10.574219 C 0.867188 10.164062 0.996094 9.734375 1.171875 9.351562 C 1.351562 8.96875 1.605469 8.613281 1.882812 8.308594 C 2.164062 8.003906 2.546875 7.722656 2.902344 7.546875 C 3.28125 7.34375 3.714844 7.214844 4.121094 7.140625 C 4.527344 7.0625 4.988281 7.089844 5.394531 7.140625 C 5.800781 7.214844 6.234375 7.367188 6.589844 7.570312 C 6.96875 7.777344 7.328125 8.03125 7.605469 8.335938 C 7.886719 8.640625 8.140625 9.023438 8.316406 9.402344 C 8.496094 9.785156 8.597656 10.214844 8.648438 10.625 C 8.699219 11.054688 8.675781 11.488281 8.574219 11.921875 C 8.46875 12.328125 8.316406 12.734375 8.089844 13.089844 C 7.859375 13.445312 7.582031 13.777344 7.25 14.058594 C 6.945312 14.335938 6.5625 14.566406 6.15625 14.71875 C 5.773438 14.871094 5.34375 14.945312 4.910156 14.972656 C 4.503906 14.996094 4.046875 14.945312 3.640625 14.820312 C 3.230469 14.71875 2.851562 14.515625 2.496094 14.285156 C 2.136719 14.03125 1.832031 13.726562 1.578125 13.394531 C 1.324219 13.066406 1.121094 12.65625 0.996094 12.277344 C 0.839844 11.871094 0.6875 11.539062 0.789062 11.003906 C 1.019531 9.886719 2.621094 7.496094 3.816406 6.171875 C 4.910156 5.003906 6.132812 4.039062 7.53125 3.425781 C 9.03125 2.792969 10.402344 2.867188 12.589844 2.5625 C 16.632812 1.953125 26.144531 0.859375 29.882812 0.476562 C 31.6875 0.300781 32.273438 0.222656 33.902344 0.171875 C 36.394531 0.0703125 41.910156 0.0703125 43.4375 0.171875 C 43.921875 0.195312 44.046875 0.171875 44.378906 0.273438 C 44.886719 0.425781 45.597656 0.757812 46.054688 1.164062 C 46.515625 1.570312 46.921875 2.15625 47.125 2.714844 C 47.355469 3.273438 47.429688 3.984375 47.355469 4.597656 C 47.277344 5.179688 46.945312 5.917969 46.691406 6.351562 C 46.488281 6.65625 46.285156 6.859375 46.054688 7.0625 C 45.828125 7.265625 45.597656 7.445312 45.269531 7.597656 C 44.808594 7.828125 43.4375 8.054688 43.4375 8.054688 "/></clipPath><clipPath id="8e6d2d0fc0"><rect x="0" width="48" y="0" height="15"/></clipPath><clipPath id="b596a84ab0"><path d="M 314.769531 43.527344 L 321.847656 43.527344 L 321.847656 48.820312 L 314.769531 48.820312 Z M 314.769531 43.527344 "/></clipPath><clipPath id="c1ea00fb3c"><path d="M 320.929688 46.046875 C 318.867188 46.707031 318.714844 47.292969 318.359375 47.546875 C 318.054688 47.75 317.621094 47.722656 317.316406 47.902344 C 316.988281 48.132812 316.808594 48.664062 316.476562 48.765625 C 316.148438 48.867188 315.589844 48.792969 315.308594 48.5625 C 315.027344 48.359375 314.824219 47.800781 314.824219 47.46875 C 314.824219 47.214844 314.953125 46.9375 315.128906 46.734375 C 315.28125 46.53125 315.5625 46.375 315.816406 46.324219 C 316.070312 46.273438 316.402344 46.300781 316.628906 46.402344 C 316.859375 46.53125 317.113281 46.734375 317.214844 46.988281 C 317.34375 47.292969 317.34375 47.878906 317.214844 48.15625 C 317.089844 48.410156 316.859375 48.640625 316.605469 48.714844 C 316.300781 48.84375 315.714844 48.792969 315.410156 48.640625 C 315.179688 48.511719 315.003906 48.257812 314.902344 48.03125 C 314.800781 47.777344 314.722656 47.519531 314.875 47.214844 C 315.207031 46.425781 317.417969 44.621094 318.511719 44.0625 C 319.222656 43.679688 319.988281 43.554688 320.496094 43.554688 C 320.851562 43.578125 321.15625 43.65625 321.359375 43.859375 C 321.613281 44.0625 321.84375 44.597656 321.820312 44.925781 C 321.820312 45.230469 321.613281 45.5625 321.4375 45.742188 C 321.308594 45.894531 320.929688 46.046875 320.929688 46.046875 "/></clipPath><clipPath id="4738b5944f"><path d="M 0.769531 0.527344 L 7.847656 0.527344 L 7.847656 5.820312 L 0.769531 5.820312 Z M 0.769531 0.527344 "/></clipPath><clipPath id="7ab775c2fd"><path d="M 6.929688 3.046875 C 4.867188 3.707031 4.714844 4.292969 4.359375 4.546875 C 4.054688 4.75 3.621094 4.722656 3.316406 4.902344 C 2.988281 5.132812 2.808594 5.664062 2.476562 5.765625 C 2.148438 5.867188 1.589844 5.792969 1.308594 5.5625 C 1.027344 5.359375 0.824219 4.800781 0.824219 4.46875 C 0.824219 4.214844 0.953125 3.9375 1.128906 3.734375 C 1.28125 3.53125 1.5625 3.375 1.816406 3.324219 C 2.070312 3.273438 2.402344 3.300781 2.628906 3.402344 C 2.859375 3.53125 3.113281 3.734375 3.214844 3.988281 C 3.34375 4.292969 3.34375 4.878906 3.214844 5.15625 C 3.089844 5.410156 2.859375 5.640625 2.605469 5.714844 C 2.300781 5.84375 1.714844 5.792969 1.410156 5.640625 C 1.179688 5.511719 1.003906 5.257812 0.902344 5.03125 C 0.800781 4.777344 0.722656 4.519531 0.875 4.214844 C 1.207031 3.425781 3.417969 1.621094 4.511719 1.0625 C 5.222656 0.679688 5.988281 0.554688 6.496094 0.554688 C 6.851562 0.578125 7.15625 0.65625 7.359375 0.859375 C 7.613281 1.0625 7.84375 1.597656 7.820312 1.925781 C 7.820312 2.230469 7.613281 2.5625 7.4375 2.742188 C 7.308594 2.894531 6.929688 3.046875 6.929688 3.046875 "/></clipPath><clipPath id="6c2977baa0"><rect x="0" width="8" y="0" height="6"/></clipPath><clipPath id="9d96b6958d"><path d="M 314.222656 43.582031 L 320.816406 43.582031 L 320.816406 48.738281 L 314.222656 48.738281 Z M 314.222656 43.582031 "/></clipPath><clipPath id="d205083bc5"><path d="M 319.785156 46.121094 C 318.867188 46.425781 317.800781 47.929688 317.34375 47.929688 C 317.113281 47.929688 316.9375 47.445312 316.785156 47.496094 C 316.628906 47.519531 316.65625 48.054688 316.503906 48.234375 C 316.351562 48.4375 316.070312 48.613281 315.816406 48.664062 C 315.5625 48.742188 315.230469 48.742188 315.003906 48.613281 C 314.722656 48.4375 314.34375 47.980469 314.265625 47.671875 C 314.1875 47.394531 314.265625 47.089844 314.394531 46.859375 C 314.496094 46.632812 314.699219 46.402344 314.953125 46.300781 C 315.257812 46.171875 315.84375 46.171875 316.148438 46.324219 C 316.453125 46.503906 316.757812 46.988281 316.785156 47.34375 C 316.808594 47.699219 316.578125 48.234375 316.300781 48.4375 C 316.019531 48.664062 315.460938 48.714844 315.128906 48.640625 C 314.875 48.589844 314.621094 48.386719 314.46875 48.183594 C 314.34375 47.953125 314.164062 47.699219 314.242188 47.394531 C 314.445312 46.683594 316.554688 45.027344 317.546875 44.394531 C 318.183594 43.984375 318.792969 43.679688 319.300781 43.628906 C 319.632812 43.578125 319.9375 43.605469 320.191406 43.78125 C 320.46875 43.960938 320.777344 44.445312 320.800781 44.773438 C 320.851562 45.078125 320.726562 45.410156 320.546875 45.640625 C 320.394531 45.867188 319.785156 46.121094 319.785156 46.121094 "/></clipPath><clipPath id="076f4bfbf5"><path d="M 0.222656 0.582031 L 6.816406 0.582031 L 6.816406 5.738281 L 0.222656 5.738281 Z M 0.222656 0.582031 "/></clipPath><clipPath id="54a6d6c4ae"><path d="M 5.785156 3.121094 C 4.867188 3.425781 3.800781 4.929688 3.34375 4.929688 C 3.113281 4.929688 2.9375 4.445312 2.785156 4.496094 C 2.628906 4.519531 2.65625 5.054688 2.503906 5.234375 C 2.351562 5.4375 2.070312 5.613281 1.816406 5.664062 C 1.5625 5.742188 1.230469 5.742188 1.003906 5.613281 C 0.722656 5.4375 0.34375 4.980469 0.265625 4.671875 C 0.1875 4.394531 0.265625 4.089844 0.394531 3.859375 C 0.496094 3.632812 0.699219 3.402344 0.953125 3.300781 C 1.257812 3.171875 1.84375 3.171875 2.148438 3.324219 C 2.453125 3.503906 2.757812 3.988281 2.785156 4.34375 C 2.808594 4.699219 2.578125 5.234375 2.300781 5.4375 C 2.019531 5.664062 1.460938 5.714844 1.128906 5.640625 C 0.875 5.589844 0.621094 5.386719 0.46875 5.183594 C 0.34375 4.953125 0.164062 4.699219 0.242188 4.394531 C 0.445312 3.683594 2.554688 2.027344 3.546875 1.394531 C 4.183594 0.984375 4.792969 0.679688 5.300781 0.628906 C 5.632812 0.578125 5.9375 0.605469 6.191406 0.78125 C 6.46875 0.960938 6.777344 1.445312 6.800781 1.773438 C 6.851562 2.078125 6.726562 2.410156 6.546875 2.640625 C 6.394531 2.867188 5.785156 3.121094 5.785156 3.121094 "/></clipPath><clipPath id="af22c1d279"><rect x="0" width="7" y="0" height="6"/></clipPath><clipPath id="aebcd57b9f"><path d="M 313.074219 43.714844 L 320.554688 43.714844 L 320.554688 49.722656 L 313.074219 49.722656 Z M 313.074219 43.714844 "/></clipPath><clipPath id="fc1d6238ae"><path d="M 319.402344 46.25 C 315.996094 48.285156 315.691406 48.996094 315.332031 49.300781 C 315.078125 49.503906 314.902344 49.683594 314.621094 49.707031 C 314.292969 49.734375 313.730469 49.605469 313.476562 49.351562 C 313.222656 49.097656 313.070312 48.5625 313.121094 48.207031 C 313.199219 47.878906 313.554688 47.417969 313.882812 47.292969 C 314.1875 47.140625 314.773438 47.191406 315.054688 47.394531 C 315.359375 47.570312 315.640625 48.082031 315.640625 48.410156 C 315.664062 48.765625 315.410156 49.277344 315.128906 49.480469 C 314.824219 49.683594 314.265625 49.734375 313.933594 49.65625 C 313.679688 49.582031 313.453125 49.351562 313.300781 49.148438 C 313.171875 48.917969 313.046875 48.664062 313.121094 48.359375 C 313.222656 47.722656 314.265625 46.503906 314.976562 45.84375 C 315.664062 45.207031 316.554688 44.800781 317.34375 44.445312 C 318.03125 44.113281 318.894531 43.679688 319.429688 43.730469 C 319.757812 43.757812 320.039062 43.933594 320.214844 44.164062 C 320.394531 44.367188 320.523438 44.722656 320.523438 45.003906 C 320.523438 45.285156 320.394531 45.640625 320.214844 45.84375 C 320.011719 46.046875 319.402344 46.25 319.402344 46.25 "/></clipPath><clipPath id="0428071dc9"><path d="M 0.0742188 0.714844 L 7.554688 0.714844 L 7.554688 6.722656 L 0.0742188 6.722656 Z M 0.0742188 0.714844 "/></clipPath><clipPath id="dda2c7c2cb"><path d="M 6.402344 3.25 C 2.996094 5.285156 2.691406 5.996094 2.332031 6.300781 C 2.078125 6.503906 1.902344 6.683594 1.621094 6.707031 C 1.292969 6.734375 0.730469 6.605469 0.476562 6.351562 C 0.222656 6.097656 0.0703125 5.5625 0.121094 5.207031 C 0.199219 4.878906 0.554688 4.417969 0.882812 4.292969 C 1.1875 4.140625 1.773438 4.191406 2.054688 4.394531 C 2.359375 4.570312 2.640625 5.082031 2.640625 5.410156 C 2.664062 5.765625 2.410156 6.277344 2.128906 6.480469 C 1.824219 6.683594 1.265625 6.734375 0.933594 6.65625 C 0.679688 6.582031 0.453125 6.351562 0.300781 6.148438 C 0.171875 5.917969 0.046875 5.664062 0.121094 5.359375 C 0.222656 4.722656 1.265625 3.503906 1.976562 2.84375 C 2.664062 2.207031 3.554688 1.800781 4.34375 1.445312 C 5.03125 1.113281 5.894531 0.679688 6.429688 0.730469 C 6.757812 0.757812 7.039062 0.933594 7.214844 1.164062 C 7.394531 1.367188 7.523438 1.722656 7.523438 2.003906 C 7.523438 2.285156 7.394531 2.640625 7.214844 2.84375 C 7.011719 3.046875 6.402344 3.25 6.402344 3.25 "/></clipPath><clipPath id="01bce33e30"><rect x="0" width="8" y="0" height="7"/></clipPath><clipPath id="e7173a92a2"><path d="M 310.75 43.613281 L 321.164062 43.613281 L 321.164062 51.253906 L 310.75 51.253906 Z M 310.75 43.613281 "/></clipPath><clipPath id="127f63eb26"><path d="M 319.683594 46.503906 C 316.503906 46.425781 313.476562 50.777344 312.410156 51.183594 C 312.054688 51.308594 311.824219 51.234375 311.59375 51.15625 C 311.339844 51.082031 311.085938 50.902344 310.960938 50.648438 C 310.808594 50.371094 310.730469 49.785156 310.832031 49.480469 C 310.933594 49.199219 311.136719 48.96875 311.390625 48.867188 C 311.671875 48.714844 312.257812 48.664062 312.5625 48.816406 C 312.890625 48.96875 313.222656 49.429688 313.273438 49.785156 C 313.324219 50.113281 313.148438 50.675781 312.867188 50.902344 C 312.613281 51.132812 312.054688 51.285156 311.722656 51.207031 C 311.390625 51.105469 310.960938 50.75 310.832031 50.421875 C 310.707031 50.089844 310.78125 49.65625 310.984375 49.226562 C 311.316406 48.511719 312.535156 47.519531 313.375 46.785156 C 314.164062 46.046875 314.976562 45.335938 315.816406 44.800781 C 316.605469 44.316406 317.496094 43.757812 318.285156 43.65625 C 318.996094 43.554688 319.886719 43.832031 320.34375 44.0625 C 320.675781 44.214844 320.878906 44.417969 321.003906 44.671875 C 321.132812 44.925781 321.183594 45.308594 321.105469 45.589844 C 321.03125 45.84375 320.800781 46.148438 320.574219 46.300781 C 320.316406 46.453125 319.683594 46.503906 319.683594 46.503906 "/></clipPath><clipPath id="d7fbac3ac2"><path d="M 0.75 0.613281 L 11.164062 0.613281 L 11.164062 8.253906 L 0.75 8.253906 Z M 0.75 0.613281 "/></clipPath><clipPath id="82de1d7d7f"><path d="M 9.683594 3.503906 C 6.503906 3.425781 3.476562 7.777344 2.410156 8.183594 C 2.054688 8.308594 1.824219 8.234375 1.59375 8.15625 C 1.339844 8.082031 1.085938 7.902344 0.960938 7.648438 C 0.808594 7.371094 0.730469 6.785156 0.832031 6.480469 C 0.933594 6.199219 1.136719 5.96875 1.390625 5.867188 C 1.671875 5.714844 2.257812 5.664062 2.5625 5.816406 C 2.890625 5.96875 3.222656 6.429688 3.273438 6.785156 C 3.324219 7.113281 3.148438 7.675781 2.867188 7.902344 C 2.613281 8.132812 2.054688 8.285156 1.722656 8.207031 C 1.390625 8.105469 0.960938 7.75 0.832031 7.421875 C 0.707031 7.089844 0.78125 6.65625 0.984375 6.226562 C 1.316406 5.511719 2.535156 4.519531 3.375 3.785156 C 4.164062 3.046875 4.976562 2.335938 5.816406 1.800781 C 6.605469 1.316406 7.496094 0.757812 8.285156 0.65625 C 8.996094 0.554688 9.886719 0.832031 10.34375 1.0625 C 10.675781 1.214844 10.878906 1.417969 11.003906 1.671875 C 11.132812 1.925781 11.183594 2.308594 11.105469 2.589844 C 11.03125 2.84375 10.800781 3.148438 10.574219 3.300781 C 10.316406 3.453125 9.683594 3.503906 9.683594 3.503906 "/></clipPath><clipPath id="622cabd229"><rect x="0" width="12" y="0" height="9"/></clipPath><clipPath id="800b5ec2cf"><path d="M 311.265625 43.046875 L 324.976562 43.046875 L 324.976562 54.207031 L 311.265625 54.207031 Z M 311.265625 43.046875 "/></clipPath><clipPath id="e1841bdfa0"><path d="M 323.648438 45.816406 C 317.773438 46.097656 316.402344 47.394531 315.613281 48.105469 C 315.15625 48.539062 314.875 48.84375 314.648438 49.25 C 314.417969 49.632812 314.265625 49.960938 314.136719 50.445312 C 313.984375 51.132812 314.0625 52.429688 313.882812 53.039062 C 313.808594 53.371094 313.730469 53.574219 313.554688 53.777344 C 313.375 53.953125 313.097656 54.109375 312.839844 54.160156 C 312.585938 54.183594 312.257812 54.160156 312.027344 54.003906 C 311.75 53.828125 311.417969 53.34375 311.367188 53.039062 C 311.316406 52.757812 311.390625 52.453125 311.542969 52.226562 C 311.722656 51.972656 312.207031 51.640625 312.5625 51.617188 C 312.917969 51.617188 313.425781 51.84375 313.628906 52.125 C 313.859375 52.402344 313.910156 52.988281 313.832031 53.292969 C 313.757812 53.574219 313.554688 53.800781 313.351562 53.953125 C 313.121094 54.082031 312.816406 54.183594 312.5625 54.160156 C 312.308594 54.160156 312.003906 54.03125 311.800781 53.851562 C 311.621094 53.699219 311.46875 53.496094 311.390625 53.167969 C 311.214844 52.429688 311.316406 50.675781 311.75 49.503906 C 312.207031 48.257812 313.25 46.988281 314.265625 45.96875 C 315.308594 44.953125 317.039062 43.832031 317.980469 43.425781 C 318.488281 43.199219 318.664062 43.199219 319.226562 43.148438 C 320.34375 43.070312 323.496094 43.019531 324.335938 43.453125 C 324.667969 43.628906 324.820312 43.882812 324.894531 44.140625 C 324.996094 44.417969 324.972656 44.800781 324.871094 45.054688 C 324.769531 45.308594 324.464844 45.5625 324.234375 45.691406 C 324.054688 45.792969 323.648438 45.816406 323.648438 45.816406 "/></clipPath><clipPath id="3554387185"><path d="M 0.265625 0.046875 L 13.976562 0.046875 L 13.976562 11.207031 L 0.265625 11.207031 Z M 0.265625 0.046875 "/></clipPath><clipPath id="0624fab087"><path d="M 12.648438 2.816406 C 6.773438 3.097656 5.402344 4.394531 4.613281 5.105469 C 4.15625 5.539062 3.875 5.84375 3.648438 6.25 C 3.417969 6.632812 3.265625 6.960938 3.136719 7.445312 C 2.984375 8.132812 3.0625 9.429688 2.882812 10.039062 C 2.808594 10.371094 2.730469 10.574219 2.554688 10.777344 C 2.375 10.953125 2.097656 11.109375 1.839844 11.160156 C 1.585938 11.183594 1.257812 11.160156 1.027344 11.003906 C 0.75 10.828125 0.417969 10.34375 0.367188 10.039062 C 0.316406 9.757812 0.390625 9.453125 0.542969 9.226562 C 0.722656 8.972656 1.207031 8.640625 1.5625 8.617188 C 1.917969 8.617188 2.425781 8.84375 2.628906 9.125 C 2.859375 9.402344 2.910156 9.988281 2.832031 10.292969 C 2.757812 10.574219 2.554688 10.800781 2.351562 10.953125 C 2.121094 11.082031 1.816406 11.183594 1.5625 11.160156 C 1.308594 11.160156 1.003906 11.03125 0.800781 10.851562 C 0.621094 10.699219 0.46875 10.496094 0.390625 10.167969 C 0.214844 9.429688 0.316406 7.675781 0.75 6.503906 C 1.207031 5.257812 2.25 3.988281 3.265625 2.96875 C 4.308594 1.953125 6.039062 0.832031 6.980469 0.425781 C 7.488281 0.199219 7.664062 0.199219 8.226562 0.148438 C 9.34375 0.0703125 12.496094 0.0195312 13.335938 0.453125 C 13.667969 0.628906 13.820312 0.882812 13.894531 1.140625 C 13.996094 1.417969 13.972656 1.800781 13.871094 2.054688 C 13.769531 2.308594 13.464844 2.5625 13.234375 2.691406 C 13.054688 2.792969 12.648438 2.816406 12.648438 2.816406 "/></clipPath><clipPath id="0f0713d857"><rect x="0" width="14" y="0" height="12"/></clipPath><clipPath id="5bced7e1c1"><rect x="0" width="437" y="0" height="281"/></clipPath></defs><g id="b86709586f"><g style="fill:#02071c;fill-opacity:1;"><g transform="translate(632.770297, 200.484359)"><path style="stroke:none" d="M 45.515625 0.890625 C 41.410156 0.890625 37.722656 0.101562 34.453125 -1.46875 C 31.179688 -3.050781 28.476562 -5.253906 26.34375 -8.078125 C 24.207031 -10.898438 22.820312 -14.171875 22.1875 -17.890625 L 15.578125 -17.890625 L 15.578125 0 L 5.390625 0 L 5.390625 -44.875 L 15.578125 -44.875 L 15.578125 -27.4375 L 22.25 -27.4375 C 22.96875 -31.113281 24.382812 -34.328125 26.5 -37.078125 C 28.625 -39.835938 31.304688 -41.976562 34.546875 -43.5 C 37.796875 -45.019531 41.453125 -45.78125 45.515625 -45.78125 C 50.171875 -45.78125 54.285156 -44.785156 57.859375 -42.796875 C 61.429688 -40.804688 64.226562 -38.054688 66.25 -34.546875 C 68.28125 -31.046875 69.296875 -27.007812 69.296875 -22.4375 C 69.296875 -17.863281 68.28125 -13.820312 66.25 -10.3125 C 64.226562 -6.8125 61.429688 -4.066406 57.859375 -2.078125 C 54.285156 -0.0976562 50.171875 0.890625 45.515625 0.890625 Z M 31.984375 -22.4375 C 31.984375 -19.75 32.550781 -17.378906 33.6875 -15.328125 C 34.820312 -13.273438 36.40625 -11.671875 38.4375 -10.515625 C 40.46875 -9.359375 42.804688 -8.78125 45.453125 -8.78125 C 48.097656 -8.78125 50.425781 -9.359375 52.4375 -10.515625 C 54.445312 -11.671875 56.019531 -13.273438 57.15625 -15.328125 C 58.289062 -17.378906 58.859375 -19.75 58.859375 -22.4375 C 58.859375 -25.132812 58.289062 -27.503906 57.15625 -29.546875 C 56.019531 -31.597656 54.445312 -33.203125 52.4375 -34.359375 C 50.425781 -35.515625 48.097656 -36.09375 45.453125 -36.09375 C 42.804688 -36.09375 40.46875 -35.515625 38.4375 -34.359375 C 36.40625 -33.203125 34.820312 -31.597656 33.6875 -29.546875 C 32.550781 -27.503906 31.984375 -25.132812 31.984375 -22.4375 Z M 31.984375 -22.4375 "/></g></g><g style="fill:#02071c;fill-opacity:1;"><g transform="translate(704.820462, 200.484359)"><path style="stroke:none" d="M 33.140625 0 L 33.140625 -18.078125 L 15.578125 -18.078125 L 15.578125 0 L 5.390625 0 L 5.390625 -44.875 L 15.578125 -44.875 L 15.578125 -27.625 L 33.140625 -27.625 L 33.140625 -44.875 L 43.34375 -44.875 L 43.34375 0 Z M 33.140625 0 "/></g></g><g style="fill:#02071c;fill-opacity:1;"><g transform="translate(753.53766, 200.484359)"><path style="stroke:none" d="M 5.390625 0 L 5.390625 -44.875 L 15.578125 -44.875 L 15.578125 -17.4375 L 35.203125 -44.875 L 43.984375 -44.875 L 43.984375 0 L 33.78125 0 L 33.78125 -27.625 L 14.109375 0 Z M 5.390625 0 "/></g></g><g style="fill:#02071c;fill-opacity:1;"><g transform="translate(802.895875, 200.484359)"><path style="stroke:none" d="M 8.59375 0.703125 C 6.84375 0.703125 5.410156 0.160156 4.296875 -0.921875 C 3.179688 -2.015625 2.625 -3.394531 2.625 -5.0625 C 2.625 -6.726562 3.179688 -8.117188 4.296875 -9.234375 C 5.410156 -10.347656 6.84375 -10.90625 8.59375 -10.90625 C 10.34375 -10.90625 11.769531 -10.347656 12.875 -9.234375 C 13.988281 -8.117188 14.546875 -6.726562 14.546875 -5.0625 C 14.546875 -3.394531 13.988281 -2.015625 12.875 -0.921875 C 11.769531 0.160156 10.34375 0.703125 8.59375 0.703125 Z M 8.59375 0.703125 "/></g></g><g style="fill:#02071c;fill-opacity:1;"><g transform="translate(820.010994, 200.484359)"><path style="stroke:none" d="M 16.09375 0.640625 C 12.113281 0.640625 8.96875 -0.285156 6.65625 -2.140625 C 4.351562 -4.003906 3.203125 -6.5625 3.203125 -9.8125 C 3.203125 -12.925781 4.238281 -15.410156 6.3125 -17.265625 C 8.382812 -19.128906 11.175781 -20.0625 14.6875 -20.0625 L 26.859375 -20.0625 L 26.859375 -21.609375 C 26.859375 -23.273438 26.257812 -24.609375 25.0625 -25.609375 C 23.863281 -26.617188 22.304688 -27.125 20.390625 -27.125 C 18.804688 -27.125 17.457031 -26.757812 16.34375 -26.03125 C 15.238281 -25.300781 14.535156 -24.335938 14.234375 -23.140625 L 4.875 -23.140625 C 5.46875 -26.816406 7.117188 -29.640625 9.828125 -31.609375 C 12.546875 -33.578125 16.046875 -34.5625 20.328125 -34.5625 C 25.367188 -34.5625 29.3125 -33.285156 32.15625 -30.734375 C 35 -28.191406 36.421875 -24.703125 36.421875 -20.265625 L 36.421875 0 L 29.171875 0 L 28.078125 -3.90625 C 25.128906 -0.875 21.132812 0.640625 16.09375 0.640625 Z M 12.828125 -10.1875 C 12.828125 -9.039062 13.328125 -8.113281 14.328125 -7.40625 C 15.328125 -6.695312 16.660156 -6.34375 18.328125 -6.34375 C 20.765625 -6.34375 22.785156 -7.046875 24.390625 -8.453125 C 25.992188 -9.867188 26.835938 -11.707031 26.921875 -13.96875 L 17.6875 -13.96875 C 16.238281 -13.96875 15.066406 -13.625 14.171875 -12.9375 C 13.273438 -12.257812 12.828125 -11.34375 12.828125 -10.1875 Z M 12.828125 -10.1875 "/></g></g><g style="fill:#02071c;fill-opacity:1;"><g transform="translate(860.651398, 200.484359)"><path style="stroke:none" d="M 4.875 0 L 4.875 -33.65625 L 14.609375 -33.65625 L 14.609375 0 Z M 3.46875 -44.5625 C 3.46875 -46.351562 4.050781 -47.8125 5.21875 -48.9375 C 6.394531 -50.070312 7.90625 -50.640625 9.75 -50.640625 C 11.625 -50.640625 13.140625 -50.070312 14.296875 -48.9375 C 15.453125 -47.8125 16.03125 -46.351562 16.03125 -44.5625 C 16.03125 -42.757812 15.453125 -41.289062 14.296875 -40.15625 C 13.140625 -39.03125 11.625 -38.46875 9.75 -38.46875 C 7.90625 -38.46875 6.394531 -39.03125 5.21875 -40.15625 C 4.050781 -41.289062 3.46875 -42.757812 3.46875 -44.5625 Z M 3.46875 -44.5625 "/></g></g><g style="fill:#02071c;fill-opacity:1;"><g transform="translate(632.770297, 281.255369)"><path style="stroke:none" d="M 24.671875 0.78125 C 21.597656 0.78125 18.765625 0.242188 16.171875 -0.828125 C 13.578125 -1.910156 11.332031 -3.421875 9.4375 -5.359375 C 7.539062 -7.296875 6.070312 -9.585938 5.03125 -12.234375 C 3.988281 -14.890625 3.46875 -17.796875 3.46875 -20.953125 C 3.46875 -24.109375 3.988281 -27.015625 5.03125 -29.671875 C 6.070312 -32.328125 7.539062 -34.617188 9.4375 -36.546875 C 11.332031 -38.484375 13.578125 -39.988281 16.171875 -41.0625 C 18.765625 -42.144531 21.597656 -42.6875 24.671875 -42.6875 C 27.984375 -42.6875 31.023438 -42.078125 33.796875 -40.859375 C 36.566406 -39.640625 38.941406 -37.898438 40.921875 -35.640625 C 42.898438 -33.390625 44.347656 -30.726562 45.265625 -27.65625 L 39.640625 -27.65625 C 38.554688 -30.695312 36.6875 -33.082031 34.03125 -34.8125 C 31.382812 -36.550781 28.320312 -37.421875 24.84375 -37.421875 C 21.726562 -37.421875 18.972656 -36.722656 16.578125 -35.328125 C 14.191406 -33.929688 12.304688 -31.992188 10.921875 -29.515625 C 9.546875 -27.046875 8.859375 -24.191406 8.859375 -20.953125 C 8.859375 -17.722656 9.546875 -14.867188 10.921875 -12.390625 C 12.304688 -9.921875 14.191406 -7.984375 16.578125 -6.578125 C 18.972656 -5.179688 21.726562 -4.484375 24.84375 -4.484375 C 28.394531 -4.484375 31.546875 -5.398438 34.296875 -7.234375 C 37.054688 -9.078125 38.976562 -11.578125 40.0625 -14.734375 L 45.625 -14.734375 C 44.789062 -11.617188 43.363281 -8.898438 41.34375 -6.578125 C 39.320312 -4.265625 36.882812 -2.457031 34.03125 -1.15625 C 31.1875 0.132812 28.066406 0.78125 24.671875 0.78125 Z M 24.671875 0.78125 "/></g></g><g style="fill:#02071c;fill-opacity:1;"><g transform="translate(681.625041, 281.255369)"><path style="stroke:none" d="M 5.5625 0 L 5.5625 -31.078125 L 10.59375 -31.078125 L 10.59375 -7.71875 L 29.640625 -31.078125 L 34.421875 -31.078125 L 34.421875 0 L 29.40625 0 L 29.40625 -23.34375 L 10.359375 0 Z M 5.5625 0 "/></g></g><g style="fill:#02071c;fill-opacity:1;"><g transform="translate(721.618877, 281.255369)"><path style="stroke:none" d="M 19.09375 0.78125 C 15.988281 0.78125 13.238281 0.0820312 10.84375 -1.3125 C 8.445312 -2.707031 6.554688 -4.644531 5.171875 -7.125 C 3.796875 -9.601562 3.109375 -12.414062 3.109375 -15.5625 C 3.109375 -18.71875 3.796875 -21.519531 5.171875 -23.96875 C 6.554688 -26.425781 8.445312 -28.351562 10.84375 -29.75 C 13.238281 -31.15625 15.988281 -31.859375 19.09375 -31.859375 C 21.6875 -31.859375 24.0625 -31.367188 26.21875 -30.390625 C 28.375 -29.410156 30.191406 -28.050781 31.671875 -26.3125 C 33.148438 -24.570312 34.148438 -22.523438 34.671875 -20.171875 L 29.578125 -20.171875 C 28.660156 -22.328125 27.269531 -24.015625 25.40625 -25.234375 C 23.550781 -26.453125 21.445312 -27.0625 19.09375 -27.0625 C 16.976562 -27.0625 15.09375 -26.570312 13.4375 -25.59375 C 11.78125 -24.613281 10.484375 -23.253906 9.546875 -21.515625 C 8.609375 -19.785156 8.140625 -17.800781 8.140625 -15.5625 C 8.140625 -13.332031 8.609375 -11.347656 9.546875 -9.609375 C 10.484375 -7.867188 11.78125 -6.507812 13.4375 -5.53125 C 15.09375 -4.5625 16.976562 -4.078125 19.09375 -4.078125 C 21.613281 -4.078125 23.820312 -4.742188 25.71875 -6.078125 C 27.613281 -7.410156 28.941406 -9.195312 29.703125 -11.4375 L 35.03125 -11.4375 C 33.988281 -7.6875 32.050781 -4.710938 29.21875 -2.515625 C 26.382812 -0.316406 23.007812 0.78125 19.09375 0.78125 Z M 19.09375 0.78125 "/></g></g><g style="fill:#02071c;fill-opacity:1;"><g transform="translate(759.577096, 281.255369)"><path style="stroke:none" d="M 13.53125 0 L 13.53125 -26.40625 L 1.859375 -26.40625 L 1.859375 -31.078125 L 30.234375 -31.078125 L 30.234375 -26.40625 L 18.5625 -26.40625 L 18.5625 0 Z M 13.53125 0 "/></g></g><g style="fill:#02071c;fill-opacity:1;"><g transform="translate(791.667963, 281.255369)"><path style="stroke:none" d="M 19.046875 0.78125 C 15.929688 0.78125 13.175781 0.09375 10.78125 -1.28125 C 8.382812 -2.664062 6.503906 -4.59375 5.140625 -7.0625 C 3.785156 -9.539062 3.109375 -12.375 3.109375 -15.5625 C 3.109375 -18.757812 3.785156 -21.582031 5.140625 -24.03125 C 6.503906 -26.488281 8.394531 -28.40625 10.8125 -29.78125 C 13.226562 -31.164062 15.988281 -31.859375 19.09375 -31.859375 C 22.40625 -31.859375 25.28125 -31.078125 27.71875 -29.515625 C 30.15625 -27.960938 32.019531 -25.816406 33.3125 -23.078125 C 34.613281 -20.347656 35.207031 -17.164062 35.09375 -13.53125 L 8.203125 -13.53125 C 8.597656 -10.613281 9.773438 -8.285156 11.734375 -6.546875 C 13.691406 -4.816406 16.144531 -3.953125 19.09375 -3.953125 C 21.132812 -3.953125 22.992188 -4.390625 24.671875 -5.265625 C 26.347656 -6.148438 27.664062 -7.410156 28.625 -9.046875 L 34.3125 -9.046875 C 33.070312 -6.003906 31.09375 -3.601562 28.375 -1.84375 C 25.664062 -0.09375 22.554688 0.78125 19.046875 0.78125 Z M 8.265625 -17.96875 L 30.0625 -17.96875 C 29.539062 -20.800781 28.289062 -23.035156 26.3125 -24.671875 C 24.332031 -26.304688 21.925781 -27.125 19.09375 -27.125 C 16.226562 -27.125 13.816406 -26.285156 11.859375 -24.609375 C 9.898438 -22.929688 8.703125 -20.71875 8.265625 -17.96875 Z M 8.265625 -17.96875 "/></g></g><g style="fill:#02071c;fill-opacity:1;"><g transform="translate(829.745944, 281.255369)"><path style="stroke:none" d="M 5.5625 0 L 5.5625 -31.078125 L 10.296875 -31.078125 L 22.75 -13.71875 L 35.140625 -31.078125 L 39.875 -31.078125 L 39.875 0 L 34.84375 0 L 34.84375 -22.75 L 24.484375 -8.203125 L 20.953125 -8.203125 L 10.59375 -22.75 L 10.59375 0 Z M 5.5625 0 "/></g></g><g style="fill:#02071c;fill-opacity:1;"><g transform="translate(875.188049, 281.255369)"><path style="stroke:none" d="M 5.5625 0 L 5.5625 -31.078125 L 10.59375 -31.078125 L 10.59375 -21.375 L 19.34375 -21.375 C 22.96875 -21.375 25.835938 -20.40625 27.953125 -18.46875 C 30.078125 -16.53125 31.140625 -13.925781 31.140625 -10.65625 C 31.140625 -7.425781 30.078125 -4.84375 27.953125 -2.90625 C 25.835938 -0.96875 22.96875 0 19.34375 0 Z M 10.59375 -4.734375 L 19.28125 -4.734375 C 21.394531 -4.734375 23.0625 -5.257812 24.28125 -6.3125 C 25.5 -7.375 26.109375 -8.820312 26.109375 -10.65625 C 26.109375 -12.53125 25.5 -13.992188 24.28125 -15.046875 C 23.0625 -16.109375 21.394531 -16.640625 19.28125 -16.640625 L 10.59375 -16.640625 Z M 38.859375 0 L 38.859375 -31.078125 L 43.890625 -31.078125 L 43.890625 0 Z M 38.859375 0 "/></g></g><g style="fill:#02071c;fill-opacity:1;"><g transform="translate(924.641491, 281.255369)"><path style="stroke:none" d=""/></g></g><g style="fill:#02071c;fill-opacity:1;"><g transform="translate(939.489512, 281.255369)"><path style="stroke:none" d="M 1.078125 8.265625 L 1.078125 -4.734375 L 4.96875 -4.734375 C 5.769531 -5.171875 6.378906 -5.828125 6.796875 -6.703125 C 7.210938 -7.578125 7.484375 -8.816406 7.609375 -10.421875 L 9.28125 -31.078125 L 32.515625 -31.078125 L 32.515625 -4.734375 L 37.90625 -4.734375 L 37.90625 8.265625 L 32.984375 8.265625 L 32.984375 0 L 5.984375 0 L 5.984375 8.265625 Z M 11.140625 -4.671875 L 27.484375 -4.671875 L 27.484375 -26.40625 L 13.890625 -26.40625 L 12.515625 -9.8125 C 12.359375 -7.664062 11.898438 -5.953125 11.140625 -4.671875 Z M 11.140625 -4.671875 "/></g></g><g style="fill:#02071c;fill-opacity:1;"><g transform="translate(979.004355, 281.255369)"><path style="stroke:none" d="M 1.015625 0 L 1.015625 -4.734375 L 2.6875 -4.734375 C 4.164062 -4.734375 5.242188 -5.09375 5.921875 -5.8125 C 6.609375 -6.53125 7.03125 -7.707031 7.1875 -9.34375 L 8.984375 -31.078125 L 32.625 -31.078125 L 32.625 0 L 27.609375 0 L 27.609375 -26.40625 L 13.59375 -26.40625 L 12.15625 -8.859375 C 11.675781 -2.953125 8.625 0 3 0 Z M 1.015625 0 "/></g></g><g style="fill:#02071c;fill-opacity:1;"><g transform="translate(1017.202076, 281.255369)"><path style="stroke:none" d="M 24.015625 0 L 24.015625 -10.59375 L 16.046875 -10.59375 L 9.15625 0 L 3.234375 0 L 10.59375 -11.25 C 8.4375 -11.9375 6.71875 -13.113281 5.4375 -14.78125 C 4.164062 -16.457031 3.53125 -18.476562 3.53125 -20.84375 C 3.53125 -23.945312 4.609375 -26.425781 6.765625 -28.28125 C 8.921875 -30.144531 11.734375 -31.078125 15.203125 -31.078125 L 29.046875 -31.078125 L 29.046875 0 Z M 8.5625 -20.84375 C 8.5625 -19.039062 9.160156 -17.648438 10.359375 -16.671875 C 11.554688 -15.691406 13.210938 -15.203125 15.328125 -15.203125 L 24.0625 -15.203125 L 24.0625 -26.40625 L 15.328125 -26.40625 C 13.210938 -26.40625 11.554688 -25.925781 10.359375 -24.96875 C 9.160156 -24.007812 8.5625 -22.632812 8.5625 -20.84375 Z M 8.5625 -20.84375 "/></g></g><g style="fill:#02071c;fill-opacity:1;"><g transform="translate(1051.807496, 281.255369)"><path style="stroke:none" d=""/></g></g><g style="fill:#02071c;fill-opacity:1;"><g transform="translate(1066.655517, 281.255369)"><path style="stroke:none" d="M 20.0625 0.78125 C 16.707031 0.78125 13.800781 0.210938 11.34375 -0.921875 C 8.882812 -2.066406 6.988281 -3.664062 5.65625 -5.71875 C 4.320312 -7.769531 3.632812 -10.15625 3.59375 -12.875 L 8.859375 -12.875 C 8.941406 -10.195312 10.007812 -8.085938 12.0625 -6.546875 C 14.113281 -5.015625 16.78125 -4.25 20.0625 -4.25 C 23.007812 -4.25 25.351562 -4.828125 27.09375 -5.984375 C 28.832031 -7.140625 29.703125 -8.757812 29.703125 -10.84375 C 29.703125 -12.789062 28.863281 -14.351562 27.1875 -15.53125 C 25.507812 -16.707031 22.773438 -17.738281 18.984375 -18.625 C 13.828125 -19.863281 10.050781 -21.445312 7.65625 -23.375 C 5.269531 -25.3125 4.078125 -27.898438 4.078125 -31.140625 C 4.078125 -34.691406 5.421875 -37.503906 8.109375 -39.578125 C 10.804688 -41.648438 14.453125 -42.6875 19.046875 -42.6875 C 23.753906 -42.6875 27.472656 -41.507812 30.203125 -39.15625 C 32.941406 -36.800781 34.332031 -33.585938 34.375 -29.515625 L 29.15625 -29.515625 C 29.113281 -32.035156 28.1875 -34.019531 26.375 -35.46875 C 24.5625 -36.925781 22.117188 -37.65625 19.046875 -37.65625 C 16.046875 -37.65625 13.695312 -37.066406 12 -35.890625 C 10.300781 -34.710938 9.453125 -33.128906 9.453125 -31.140625 C 9.453125 -29.421875 10.238281 -27.972656 11.8125 -26.796875 C 13.394531 -25.617188 16.222656 -24.53125 20.296875 -23.53125 C 25.648438 -22.21875 29.460938 -20.570312 31.734375 -18.59375 C 34.003906 -16.613281 35.140625 -14.085938 35.140625 -11.015625 C 35.140625 -7.378906 33.769531 -4.503906 31.03125 -2.390625 C 28.300781 -0.273438 24.644531 0.78125 20.0625 0.78125 Z M 20.0625 0.78125 "/></g></g><g style="fill:#02071c;fill-opacity:1;"><g transform="translate(1105.392072, 281.255369)"><path style="stroke:none" d="M 6.109375 0 L 6.109375 -41.90625 L 11.015625 -41.90625 L 27.484375 -17.0625 L 43.828125 -41.90625 L 48.734375 -41.90625 L 48.734375 0 L 43.46875 0 L 43.46875 -32.03125 L 29.578125 -11.140625 L 25.265625 -11.140625 L 11.375 -32.09375 L 11.375 0 Z M 6.109375 0 "/></g></g><g style="fill:#02071c;fill-opacity:1;"><g transform="translate(1160.233895, 281.255369)"><path style="stroke:none" d="M 6.109375 0 L 6.109375 -41.90625 L 22.328125 -41.90625 C 26.359375 -41.90625 29.582031 -40.894531 32 -38.875 C 34.414062 -36.863281 35.625 -34.164062 35.625 -30.78125 C 35.625 -28.738281 35.144531 -26.9375 34.1875 -25.375 C 33.226562 -23.820312 31.890625 -22.609375 30.171875 -21.734375 C 32.328125 -20.859375 33.972656 -19.5625 35.109375 -17.84375 C 36.253906 -16.125 36.828125 -14.085938 36.828125 -11.734375 C 36.828125 -8.097656 35.597656 -5.234375 33.140625 -3.140625 C 30.679688 -1.046875 27.335938 0 23.109375 0 Z M 11.375 -4.90625 L 22.984375 -4.90625 C 25.703125 -4.90625 27.789062 -5.523438 29.25 -6.765625 C 30.707031 -8.003906 31.4375 -9.738281 31.4375 -11.96875 C 31.4375 -14.207031 30.695312 -15.9375 29.21875 -17.15625 C 27.738281 -18.375 25.644531 -18.984375 22.9375 -18.984375 L 11.375 -18.984375 Z M 11.375 -23.765625 L 22.21875 -23.765625 C 24.8125 -23.765625 26.796875 -24.34375 28.171875 -25.5 C 29.546875 -26.664062 30.234375 -28.285156 30.234375 -30.359375 C 30.234375 -32.472656 29.535156 -34.109375 28.140625 -35.265625 C 26.742188 -36.421875 24.769531 -37 22.21875 -37 L 11.375 -37 Z M 11.375 -23.765625 "/></g></g><g style="fill:#02071c;fill-opacity:1;"><g transform="translate(1200.407369, 281.255369)"><path style="stroke:none" d=""/></g></g><g style="fill:#02071c;fill-opacity:1;"><g transform="translate(1215.25539, 281.255369)"><path style="stroke:none" d="M 19.09375 0.78125 C 15.988281 0.78125 13.238281 0.0820312 10.84375 -1.3125 C 8.445312 -2.707031 6.554688 -4.644531 5.171875 -7.125 C 3.796875 -9.601562 3.109375 -12.414062 3.109375 -15.5625 C 3.109375 -18.71875 3.796875 -21.519531 5.171875 -23.96875 C 6.554688 -26.425781 8.445312 -28.351562 10.84375 -29.75 C 13.238281 -31.15625 15.988281 -31.859375 19.09375 -31.859375 C 21.6875 -31.859375 24.0625 -31.367188 26.21875 -30.390625 C 28.375 -29.410156 30.191406 -28.050781 31.671875 -26.3125 C 33.148438 -24.570312 34.148438 -22.523438 34.671875 -20.171875 L 29.578125 -20.171875 C 28.660156 -22.328125 27.269531 -24.015625 25.40625 -25.234375 C 23.550781 -26.453125 21.445312 -27.0625 19.09375 -27.0625 C 16.976562 -27.0625 15.09375 -26.570312 13.4375 -25.59375 C 11.78125 -24.613281 10.484375 -23.253906 9.546875 -21.515625 C 8.609375 -19.785156 8.140625 -17.800781 8.140625 -15.5625 C 8.140625 -13.332031 8.609375 -11.347656 9.546875 -9.609375 C 10.484375 -7.867188 11.78125 -6.507812 13.4375 -5.53125 C 15.09375 -4.5625 16.976562 -4.078125 19.09375 -4.078125 C 21.613281 -4.078125 23.820312 -4.742188 25.71875 -6.078125 C 27.613281 -7.410156 28.941406 -9.195312 29.703125 -11.4375 L 35.03125 -11.4375 C 33.988281 -7.6875 32.050781 -4.710938 29.21875 -2.515625 C 26.382812 -0.316406 23.007812 0.78125 19.09375 0.78125 Z M 19.09375 0.78125 "/></g></g><g style="fill:#02071c;fill-opacity:1;"><g transform="translate(1253.213609, 281.255369)"><path style="stroke:none" d=""/></g></g><g style="fill:#02071c;fill-opacity:1;"><g transform="translate(1268.06163, 281.255369)"><path style="stroke:none" d="M 6.109375 0 L 6.109375 -41.90625 L 11.375 -41.90625 L 11.375 -8.984375 L 34.484375 -41.90625 L 39.390625 -41.90625 L 39.390625 0 L 34.1875 0 L 34.1875 -33.046875 L 11.015625 0 Z M 6.109375 0 "/></g></g><g style="fill:#02071c;fill-opacity:1;"><g transform="translate(1313.56361, 281.255369)"><path style="stroke:none" d="M 6.109375 0 L 6.109375 -41.90625 L 11.375 -41.90625 L 11.375 -8.984375 L 34.484375 -41.90625 L 39.390625 -41.90625 L 39.390625 0 L 34.1875 0 L 34.1875 -33.046875 L 11.015625 0 Z M 6.109375 0 "/></g></g><g style="fill:#02071c;fill-opacity:1;"><g transform="translate(632.770297, 352.505363)"><path style="stroke:none" d="M 24.015625 0 L 24.015625 -10.59375 L 16.046875 -10.59375 L 9.15625 0 L 3.234375 0 L 10.59375 -11.25 C 8.4375 -11.9375 6.71875 -13.113281 5.4375 -14.78125 C 4.164062 -16.457031 3.53125 -18.476562 3.53125 -20.84375 C 3.53125 -23.945312 4.609375 -26.425781 6.765625 -28.28125 C 8.921875 -30.144531 11.734375 -31.078125 15.203125 -31.078125 L 29.046875 -31.078125 L 29.046875 0 Z M 8.5625 -20.84375 C 8.5625 -19.039062 9.160156 -17.648438 10.359375 -16.671875 C 11.554688 -15.691406 13.210938 -15.203125 15.328125 -15.203125 L 24.0625 -15.203125 L 24.0625 -26.40625 L 15.328125 -26.40625 C 13.210938 -26.40625 11.554688 -25.925781 10.359375 -24.96875 C 9.160156 -24.007812 8.5625 -22.632812 8.5625 -20.84375 Z M 8.5625 -20.84375 "/></g></g><g style="fill:#02071c;fill-opacity:1;"><g transform="translate(667.37574, 352.505363)"><path style="stroke:none" d="M 5.5625 0 L 5.5625 -31.078125 L 33.765625 -31.078125 L 33.765625 0 L 28.734375 0 L 28.734375 -26.40625 L 10.59375 -26.40625 L 10.59375 0 Z M 5.5625 0 "/></g></g><g style="fill:#02071c;fill-opacity:1;"><g transform="translate(706.710991, 352.505363)"><path style="stroke:none" d="M 19.578125 0.78125 C 16.347656 0.78125 13.492188 0.0820312 11.015625 -1.3125 C 8.546875 -2.707031 6.609375 -4.644531 5.203125 -7.125 C 3.804688 -9.601562 3.109375 -12.414062 3.109375 -15.5625 C 3.109375 -18.757812 3.804688 -21.570312 5.203125 -24 C 6.609375 -26.4375 8.546875 -28.351562 11.015625 -29.75 C 13.492188 -31.15625 16.347656 -31.859375 19.578125 -31.859375 C 22.804688 -31.859375 25.660156 -31.15625 28.140625 -29.75 C 30.617188 -28.351562 32.554688 -26.4375 33.953125 -24 C 35.347656 -21.570312 36.046875 -18.757812 36.046875 -15.5625 C 36.046875 -12.414062 35.347656 -9.601562 33.953125 -7.125 C 32.554688 -4.644531 30.617188 -2.707031 28.140625 -1.3125 C 25.660156 0.0820312 22.804688 0.78125 19.578125 0.78125 Z M 8.140625 -15.5625 C 8.140625 -13.289062 8.628906 -11.285156 9.609375 -9.546875 C 10.585938 -7.816406 11.929688 -6.472656 13.640625 -5.515625 C 15.359375 -4.554688 17.335938 -4.078125 19.578125 -4.078125 C 21.816406 -4.078125 23.789062 -4.554688 25.5 -5.515625 C 27.21875 -6.472656 28.566406 -7.816406 29.546875 -9.546875 C 30.523438 -11.285156 31.015625 -13.289062 31.015625 -15.5625 C 31.015625 -17.84375 30.523438 -19.835938 29.546875 -21.546875 C 28.566406 -23.265625 27.21875 -24.613281 25.5 -25.59375 C 23.789062 -26.570312 21.816406 -27.0625 19.578125 -27.0625 C 17.335938 -27.0625 15.359375 -26.570312 13.640625 -25.59375 C 11.929688 -24.613281 10.585938 -23.265625 9.609375 -21.546875 C 8.628906 -19.835938 8.140625 -17.84375 8.140625 -15.5625 Z M 8.140625 -15.5625 "/></g></g><g style="fill:#02071c;fill-opacity:1;"><g transform="translate(745.866639, 352.505363)"><path style="stroke:none" d="M 28.734375 0 L 28.734375 -13.359375 L 10.59375 -13.359375 L 10.59375 0 L 5.5625 0 L 5.5625 -31.078125 L 10.59375 -31.078125 L 10.59375 -18.078125 L 28.734375 -18.078125 L 28.734375 -31.078125 L 33.765625 -31.078125 L 33.765625 0 Z M 28.734375 0 "/></g></g><g style="fill:#02071c;fill-opacity:1;"><g transform="translate(785.201891, 352.505363)"><path style="stroke:none" d="M 19.09375 0.78125 C 15.988281 0.78125 13.238281 0.0820312 10.84375 -1.3125 C 8.445312 -2.707031 6.554688 -4.644531 5.171875 -7.125 C 3.796875 -9.601562 3.109375 -12.414062 3.109375 -15.5625 C 3.109375 -18.71875 3.796875 -21.519531 5.171875 -23.96875 C 6.554688 -26.425781 8.445312 -28.351562 10.84375 -29.75 C 13.238281 -31.15625 15.988281 -31.859375 19.09375 -31.859375 C 21.6875 -31.859375 24.0625 -31.367188 26.21875 -30.390625 C 28.375 -29.410156 30.191406 -28.050781 31.671875 -26.3125 C 33.148438 -24.570312 34.148438 -22.523438 34.671875 -20.171875 L 29.578125 -20.171875 C 28.660156 -22.328125 27.269531 -24.015625 25.40625 -25.234375 C 23.550781 -26.453125 21.445312 -27.0625 19.09375 -27.0625 C 16.976562 -27.0625 15.09375 -26.570312 13.4375 -25.59375 C 11.78125 -24.613281 10.484375 -23.253906 9.546875 -21.515625 C 8.609375 -19.785156 8.140625 -17.800781 8.140625 -15.5625 C 8.140625 -13.332031 8.609375 -11.347656 9.546875 -9.609375 C 10.484375 -7.867188 11.78125 -6.507812 13.4375 -5.53125 C 15.09375 -4.5625 16.976562 -4.078125 19.09375 -4.078125 C 21.613281 -4.078125 23.820312 -4.742188 25.71875 -6.078125 C 27.613281 -7.410156 28.941406 -9.195312 29.703125 -11.4375 L 35.03125 -11.4375 C 33.988281 -7.6875 32.050781 -4.710938 29.21875 -2.515625 C 26.382812 -0.316406 23.007812 0.78125 19.09375 0.78125 Z M 19.09375 0.78125 "/></g></g><g style="fill:#02071c;fill-opacity:1;"><g transform="translate(823.160109, 352.505363)"><path style="stroke:none" d="M 5.5625 0 L 5.5625 -31.078125 L 10.59375 -31.078125 L 10.59375 -18.078125 L 14.484375 -18.078125 C 17.003906 -18.078125 18.941406 -18.503906 20.296875 -19.359375 C 21.648438 -20.222656 22.769531 -21.910156 23.65625 -24.421875 L 25.984375 -31.078125 L 31.375 -31.078125 L 28.265625 -22.578125 C 27.023438 -19.222656 25.285156 -16.828125 23.046875 -15.390625 L 32.875 0 L 26.828125 0 L 18.265625 -13.71875 C 17.660156 -13.59375 17.03125 -13.507812 16.375 -13.46875 C 15.71875 -13.425781 15.03125 -13.40625 14.3125 -13.40625 L 10.59375 -13.40625 L 10.59375 0 Z M 5.5625 0 "/></g></g><g style="fill:#02071c;fill-opacity:1;"><g transform="translate(858.064896, 352.505363)"><path style="stroke:none" d="M 19.578125 0.78125 C 16.347656 0.78125 13.492188 0.0820312 11.015625 -1.3125 C 8.546875 -2.707031 6.609375 -4.644531 5.203125 -7.125 C 3.804688 -9.601562 3.109375 -12.414062 3.109375 -15.5625 C 3.109375 -18.757812 3.804688 -21.570312 5.203125 -24 C 6.609375 -26.4375 8.546875 -28.351562 11.015625 -29.75 C 13.492188 -31.15625 16.347656 -31.859375 19.578125 -31.859375 C 22.804688 -31.859375 25.660156 -31.15625 28.140625 -29.75 C 30.617188 -28.351562 32.554688 -26.4375 33.953125 -24 C 35.347656 -21.570312 36.046875 -18.757812 36.046875 -15.5625 C 36.046875 -12.414062 35.347656 -9.601562 33.953125 -7.125 C 32.554688 -4.644531 30.617188 -2.707031 28.140625 -1.3125 C 25.660156 0.0820312 22.804688 0.78125 19.578125 0.78125 Z M 8.140625 -15.5625 C 8.140625 -13.289062 8.628906 -11.285156 9.609375 -9.546875 C 10.585938 -7.816406 11.929688 -6.472656 13.640625 -5.515625 C 15.359375 -4.554688 17.335938 -4.078125 19.578125 -4.078125 C 21.816406 -4.078125 23.789062 -4.554688 25.5 -5.515625 C 27.21875 -6.472656 28.566406 -7.816406 29.546875 -9.546875 C 30.523438 -11.285156 31.015625 -13.289062 31.015625 -15.5625 C 31.015625 -17.84375 30.523438 -19.835938 29.546875 -21.546875 C 28.566406 -23.265625 27.21875 -24.613281 25.5 -25.59375 C 23.789062 -26.570312 21.816406 -27.0625 19.578125 -27.0625 C 17.335938 -27.0625 15.359375 -26.570312 13.640625 -25.59375 C 11.929688 -24.613281 10.585938 -23.265625 9.609375 -21.546875 C 8.628906 -19.835938 8.140625 -17.84375 8.140625 -15.5625 Z M 8.140625 -15.5625 "/></g></g><g style="fill:#02071c;fill-opacity:1;"><g transform="translate(897.220555, 352.505363)"><path style="stroke:none" d="M 5.5625 0 L 5.5625 -31.078125 L 25.984375 -31.078125 L 25.984375 -26.40625 L 10.59375 -26.40625 L 10.59375 0 Z M 5.5625 0 "/></g></g><g style="fill:#02071c;fill-opacity:1;"><g transform="translate(924.940822, 352.505363)"><path style="stroke:none" d="M 19.578125 0.78125 C 16.347656 0.78125 13.492188 0.0820312 11.015625 -1.3125 C 8.546875 -2.707031 6.609375 -4.644531 5.203125 -7.125 C 3.804688 -9.601562 3.109375 -12.414062 3.109375 -15.5625 C 3.109375 -18.757812 3.804688 -21.570312 5.203125 -24 C 6.609375 -26.4375 8.546875 -28.351562 11.015625 -29.75 C 13.492188 -31.15625 16.347656 -31.859375 19.578125 -31.859375 C 22.804688 -31.859375 25.660156 -31.15625 28.140625 -29.75 C 30.617188 -28.351562 32.554688 -26.4375 33.953125 -24 C 35.347656 -21.570312 36.046875 -18.757812 36.046875 -15.5625 C 36.046875 -12.414062 35.347656 -9.601562 33.953125 -7.125 C 32.554688 -4.644531 30.617188 -2.707031 28.140625 -1.3125 C 25.660156 0.0820312 22.804688 0.78125 19.578125 0.78125 Z M 8.140625 -15.5625 C 8.140625 -13.289062 8.628906 -11.285156 9.609375 -9.546875 C 10.585938 -7.816406 11.929688 -6.472656 13.640625 -5.515625 C 15.359375 -4.554688 17.335938 -4.078125 19.578125 -4.078125 C 21.816406 -4.078125 23.789062 -4.554688 25.5 -5.515625 C 27.21875 -6.472656 28.566406 -7.816406 29.546875 -9.546875 C 30.523438 -11.285156 31.015625 -13.289062 31.015625 -15.5625 C 31.015625 -17.84375 30.523438 -19.835938 29.546875 -21.546875 C 28.566406 -23.265625 27.21875 -24.613281 25.5 -25.59375 C 23.789062 -26.570312 21.816406 -27.0625 19.578125 -27.0625 C 17.335938 -27.0625 15.359375 -26.570312 13.640625 -25.59375 C 11.929688 -24.613281 10.585938 -23.265625 9.609375 -21.546875 C 8.628906 -19.835938 8.140625 -17.84375 8.140625 -15.5625 Z M 8.140625 -15.5625 "/></g></g><g style="fill:#02071c;fill-opacity:1;"><g transform="translate(964.096481, 352.505363)"><path style="stroke:none" d=""/></g></g><g style="fill:#02071c;fill-opacity:1;"><g transform="translate(978.94448, 352.505363)"><path style="stroke:none" d="M 5.5625 0 L 5.5625 -31.078125 L 10.59375 -31.078125 L 10.59375 -18.078125 L 14.484375 -18.078125 C 17.003906 -18.078125 18.941406 -18.503906 20.296875 -19.359375 C 21.648438 -20.222656 22.769531 -21.910156 23.65625 -24.421875 L 25.984375 -31.078125 L 31.375 -31.078125 L 28.265625 -22.578125 C 27.023438 -19.222656 25.285156 -16.828125 23.046875 -15.390625 L 32.875 0 L 26.828125 0 L 18.265625 -13.71875 C 17.660156 -13.59375 17.03125 -13.507812 16.375 -13.46875 C 15.71875 -13.425781 15.03125 -13.40625 14.3125 -13.40625 L 10.59375 -13.40625 L 10.59375 0 Z M 5.5625 0 "/></g></g><g style="fill:#02071c;fill-opacity:1;"><g transform="translate(1013.849278, 352.505363)"><path style="stroke:none" d="M 15.75 0.484375 C 12 0.484375 9.0625 -0.363281 6.9375 -2.0625 C 4.820312 -3.757812 3.765625 -6.066406 3.765625 -8.984375 C 3.765625 -11.816406 4.742188 -14.070312 6.703125 -15.75 C 8.660156 -17.425781 11.253906 -18.265625 14.484375 -18.265625 L 27.1875 -18.265625 L 27.1875 -19.40625 C 27.1875 -21.832031 26.425781 -23.734375 24.90625 -25.109375 C 23.382812 -26.492188 21.3125 -27.1875 18.6875 -27.1875 C 16.6875 -27.1875 14.945312 -26.734375 13.46875 -25.828125 C 11.988281 -24.929688 10.992188 -23.726562 10.484375 -22.21875 L 5.390625 -22.21875 C 6.066406 -25.207031 7.59375 -27.5625 9.96875 -29.28125 C 12.34375 -31 15.226562 -31.859375 18.625 -31.859375 C 21.332031 -31.859375 23.703125 -31.347656 25.734375 -30.328125 C 27.773438 -29.304688 29.363281 -27.882812 30.5 -26.0625 C 31.644531 -24.25 32.21875 -22.148438 32.21875 -19.765625 L 32.21875 0 L 28.078125 0 L 27.546875 -4.3125 C 24.710938 -1.113281 20.78125 0.484375 15.75 0.484375 Z M 8.796875 -9.046875 C 8.796875 -7.523438 9.4375 -6.304688 10.71875 -5.390625 C 12 -4.472656 13.734375 -4.015625 15.921875 -4.015625 C 18.078125 -4.015625 19.992188 -4.429688 21.671875 -5.265625 C 23.347656 -6.109375 24.6875 -7.265625 25.6875 -8.734375 C 26.6875 -10.210938 27.207031 -11.910156 27.25 -13.828125 L 14.671875 -13.828125 C 12.953125 -13.828125 11.539062 -13.394531 10.4375 -12.53125 C 9.34375 -11.675781 8.796875 -10.515625 8.796875 -9.046875 Z M 8.796875 -9.046875 "/></g></g><g style="fill:#02071c;fill-opacity:1;"><g transform="translate(1050.969331, 352.505363)"><path style="stroke:none" d="M 17.1875 -9.40625 C 12.832031 -9.40625 9.546875 -10.550781 7.328125 -12.84375 C 5.117188 -15.132812 4.015625 -18.4375 4.015625 -22.75 L 4.015625 -31.078125 L 9.046875 -31.078125 L 9.046875 -22.9375 C 9.046875 -19.738281 9.710938 -17.46875 11.046875 -16.125 C 12.378906 -14.789062 14.664062 -14.125 17.90625 -14.125 L 25.390625 -14.125 L 25.390625 -31.078125 L 30.421875 -31.078125 L 30.421875 0 L 25.390625 0 L 25.390625 -9.40625 Z M 17.1875 -9.40625 "/></g></g><g style="fill:#02071c;fill-opacity:1;"><g transform="translate(1086.951796, 352.505363)"><path style="stroke:none" d="M 19.046875 0.78125 C 15.929688 0.78125 13.175781 0.09375 10.78125 -1.28125 C 8.382812 -2.664062 6.503906 -4.59375 5.140625 -7.0625 C 3.785156 -9.539062 3.109375 -12.375 3.109375 -15.5625 C 3.109375 -18.757812 3.785156 -21.582031 5.140625 -24.03125 C 6.503906 -26.488281 8.394531 -28.40625 10.8125 -29.78125 C 13.226562 -31.164062 15.988281 -31.859375 19.09375 -31.859375 C 22.40625 -31.859375 25.28125 -31.078125 27.71875 -29.515625 C 30.15625 -27.960938 32.019531 -25.816406 33.3125 -23.078125 C 34.613281 -20.347656 35.207031 -17.164062 35.09375 -13.53125 L 8.203125 -13.53125 C 8.597656 -10.613281 9.773438 -8.285156 11.734375 -6.546875 C 13.691406 -4.816406 16.144531 -3.953125 19.09375 -3.953125 C 21.132812 -3.953125 22.992188 -4.390625 24.671875 -5.265625 C 26.347656 -6.148438 27.664062 -7.410156 28.625 -9.046875 L 34.3125 -9.046875 C 33.070312 -6.003906 31.09375 -3.601562 28.375 -1.84375 C 25.664062 -0.09375 22.554688 0.78125 19.046875 0.78125 Z M 8.265625 -17.96875 L 30.0625 -17.96875 C 29.539062 -20.800781 28.289062 -23.035156 26.3125 -24.671875 C 24.332031 -26.304688 21.925781 -27.125 19.09375 -27.125 C 16.226562 -27.125 13.816406 -26.285156 11.859375 -24.609375 C 9.898438 -22.929688 8.703125 -20.71875 8.265625 -17.96875 Z M 8.265625 -17.96875 "/></g></g><g style="fill:#02071c;fill-opacity:1;"><g transform="translate(1125.029766, 352.505363)"><path style="stroke:none" d="M 19.09375 0.78125 C 15.988281 0.78125 13.238281 0.0820312 10.84375 -1.3125 C 8.445312 -2.707031 6.554688 -4.644531 5.171875 -7.125 C 3.796875 -9.601562 3.109375 -12.414062 3.109375 -15.5625 C 3.109375 -18.71875 3.796875 -21.519531 5.171875 -23.96875 C 6.554688 -26.425781 8.445312 -28.351562 10.84375 -29.75 C 13.238281 -31.15625 15.988281 -31.859375 19.09375 -31.859375 C 21.6875 -31.859375 24.0625 -31.367188 26.21875 -30.390625 C 28.375 -29.410156 30.191406 -28.050781 31.671875 -26.3125 C 33.148438 -24.570312 34.148438 -22.523438 34.671875 -20.171875 L 29.578125 -20.171875 C 28.660156 -22.328125 27.269531 -24.015625 25.40625 -25.234375 C 23.550781 -26.453125 21.445312 -27.0625 19.09375 -27.0625 C 16.976562 -27.0625 15.09375 -26.570312 13.4375 -25.59375 C 11.78125 -24.613281 10.484375 -23.253906 9.546875 -21.515625 C 8.609375 -19.785156 8.140625 -17.800781 8.140625 -15.5625 C 8.140625 -13.332031 8.609375 -11.347656 9.546875 -9.609375 C 10.484375 -7.867188 11.78125 -6.507812 13.4375 -5.53125 C 15.09375 -4.5625 16.976562 -4.078125 19.09375 -4.078125 C 21.613281 -4.078125 23.820312 -4.742188 25.71875 -6.078125 C 27.613281 -7.410156 28.941406 -9.195312 29.703125 -11.4375 L 35.03125 -11.4375 C 33.988281 -7.6875 32.050781 -4.710938 29.21875 -2.515625 C 26.382812 -0.316406 23.007812 0.78125 19.09375 0.78125 Z M 19.09375 0.78125 "/></g></g><g style="fill:#02071c;fill-opacity:1;"><g transform="translate(1162.987984, 352.505363)"><path style="stroke:none" d="M 13.53125 0 L 13.53125 -26.40625 L 1.859375 -26.40625 L 1.859375 -31.078125 L 30.234375 -31.078125 L 30.234375 -26.40625 L 18.5625 -26.40625 L 18.5625 0 Z M 13.53125 0 "/></g></g><g style="fill:#02071c;fill-opacity:1;"><g transform="translate(1195.078863, 352.505363)"><path style="stroke:none" d="M 5.5625 0 L 5.5625 -31.078125 L 20.484375 -31.078125 C 23.554688 -31.078125 26.03125 -30.304688 27.90625 -28.765625 C 29.78125 -27.234375 30.71875 -25.207031 30.71875 -22.6875 C 30.71875 -21.175781 30.359375 -19.820312 29.640625 -18.625 C 28.921875 -17.425781 27.921875 -16.488281 26.640625 -15.8125 C 28.160156 -15.09375 29.347656 -14.101562 30.203125 -12.84375 C 31.066406 -11.582031 31.5 -10.113281 31.5 -8.4375 C 31.5 -5.882812 30.550781 -3.835938 28.65625 -2.296875 C 26.757812 -0.765625 24.253906 0 21.140625 0 Z M 10.59375 -4.546875 L 21.203125 -4.546875 C 22.835938 -4.546875 24.113281 -4.9375 25.03125 -5.71875 C 25.945312 -6.5 26.40625 -7.609375 26.40625 -9.046875 C 26.40625 -10.515625 25.945312 -11.640625 25.03125 -12.421875 C 24.113281 -13.203125 22.835938 -13.59375 21.203125 -13.59375 L 10.59375 -13.59375 Z M 10.59375 -17.96875 L 20.953125 -17.96875 C 22.347656 -17.96875 23.472656 -18.375 24.328125 -19.1875 C 25.191406 -20.007812 25.625 -21.054688 25.625 -22.328125 C 25.625 -23.609375 25.191406 -24.644531 24.328125 -25.4375 C 23.472656 -26.238281 22.347656 -26.640625 20.953125 -26.640625 L 10.59375 -26.640625 Z M 10.59375 -17.96875 "/></g></g><g style="fill:#02071c;fill-opacity:1;"><g transform="translate(1229.564532, 352.505363)"><path style="stroke:none" d="M 15.75 0.484375 C 12 0.484375 9.0625 -0.363281 6.9375 -2.0625 C 4.820312 -3.757812 3.765625 -6.066406 3.765625 -8.984375 C 3.765625 -11.816406 4.742188 -14.070312 6.703125 -15.75 C 8.660156 -17.425781 11.253906 -18.265625 14.484375 -18.265625 L 27.1875 -18.265625 L 27.1875 -19.40625 C 27.1875 -21.832031 26.425781 -23.734375 24.90625 -25.109375 C 23.382812 -26.492188 21.3125 -27.1875 18.6875 -27.1875 C 16.6875 -27.1875 14.945312 -26.734375 13.46875 -25.828125 C 11.988281 -24.929688 10.992188 -23.726562 10.484375 -22.21875 L 5.390625 -22.21875 C 6.066406 -25.207031 7.59375 -27.5625 9.96875 -29.28125 C 12.34375 -31 15.226562 -31.859375 18.625 -31.859375 C 21.332031 -31.859375 23.703125 -31.347656 25.734375 -30.328125 C 27.773438 -29.304688 29.363281 -27.882812 30.5 -26.0625 C 31.644531 -24.25 32.21875 -22.148438 32.21875 -19.765625 L 32.21875 0 L 28.078125 0 L 27.546875 -4.3125 C 24.710938 -1.113281 20.78125 0.484375 15.75 0.484375 Z M 8.796875 -9.046875 C 8.796875 -7.523438 9.4375 -6.304688 10.71875 -5.390625 C 12 -4.472656 13.734375 -4.015625 15.921875 -4.015625 C 18.078125 -4.015625 19.992188 -4.429688 21.671875 -5.265625 C 23.347656 -6.109375 24.6875 -7.265625 25.6875 -8.734375 C 26.6875 -10.210938 27.207031 -11.910156 27.25 -13.828125 L 14.671875 -13.828125 C 12.953125 -13.828125 11.539062 -13.394531 10.4375 -12.53125 C 9.34375 -11.675781 8.796875 -10.515625 8.796875 -9.046875 Z M 8.796875 -9.046875 "/></g></g><g transform="matrix(1,0,0,1,80,104)"><g clip-path="url(#5bced7e1c1)"><path style=" stroke:none;fill-rule:nonzero;fill:#02071c;fill-opacity:1;" d="M 395.179688 180.632812 C 397.296875 180.832031 398.808594 182.75 398.605469 184.765625 C 397.699219 193.636719 395.378906 209.867188 389.734375 225.191406 C 383.886719 241.019531 374.410156 255.835938 359.1875 260.777344 C 357.476562 261.28125 355.660156 260.574219 354.753906 259.164062 C 354.753906 259.0625 340.035156 234.765625 335.195312 216.320312 C 334.691406 214.304688 335.902344 212.1875 337.917969 211.683594 C 339.933594 211.175781 388.523438 179.925781 395.179688 180.632812 Z M 395.179688 180.632812 "/><g clip-rule="nonzero" clip-path="url(#294f094ab5)"><path style=" stroke:none;fill-rule:nonzero;fill:#02071c;fill-opacity:1;" d="M 171.378906 236.882812 C 156.457031 231.84375 140.832031 225.089844 125.914062 217.429688 C 110.1875 209.363281 95.367188 200.492188 82.664062 191.722656 C 77.320312 197.667969 69.15625 204.421875 57.460938 208.554688 C 44.15625 213.292969 26.3125 214.402344 3.125 206.539062 C 1.109375 205.835938 0.101562 203.71875 0.707031 201.703125 C 0.707031 201.601562 0.804688 201.398438 0.90625 201.296875 C 1.007812 201.199219 20.867188 158.957031 43.851562 152.605469 C 39.820312 142.828125 33.871094 119.441406 48.894531 85.871094 C 49.699219 83.953125 51.917969 83.148438 53.832031 83.953125 C 69.257812 90.609375 80.445312 98.570312 88.007812 107.34375 C 95.667969 116.316406 99.601562 126.09375 100.710938 136.476562 C 117.546875 137.6875 134.683594 135.972656 150.8125 131.636719 C 167.445312 127.203125 182.769531 119.84375 195.269531 109.964844 C 223.902344 87.28125 268.863281 59.253906 312.3125 46.652344 C 332.273438 40.90625 351.929688 38.386719 369.671875 41.109375 C 387.820312 43.832031 403.847656 51.996094 416.148438 67.523438 C 423.304688 76.59375 429.152344 88.1875 433.386719 102.605469 C 434.394531 106.03125 435.097656 109.359375 435.503906 112.585938 C 439.535156 141.820312 423.507812 166.820312 397.597656 186.882812 C 372.292969 206.539062 337.515625 221.5625 303.039062 231.542969 C 284.488281 236.882812 266.140625 240.714844 249.40625 243.035156 C 248.296875 243.132812 247.289062 242.832031 246.480469 242.226562 L 173.597656 237.488281 C 172.6875 237.691406 171.984375 237.386719 171.378906 236.882812 Z M 171.378906 236.882812 "/></g><g clip-rule="nonzero" clip-path="url(#eca45a2c79)"><path style=" stroke:none;fill-rule:nonzero;fill:#02071c;fill-opacity:1;" d="M 263.316406 194.242188 C 265.332031 193.738281 267.449219 194.945312 267.953125 197.0625 C 267.953125 197.265625 283.78125 256.039062 167.851562 279.628906 C 165.832031 280.03125 163.816406 278.722656 163.414062 276.605469 C 163.414062 276.503906 163.3125 276.300781 163.3125 276.101562 C 163.3125 276 159.683594 231.238281 189.121094 206.441406 C 189.324219 206.238281 261.90625 194.542969 263.316406 194.242188 Z M 263.316406 194.242188 "/></g><g clip-rule="nonzero" clip-path="url(#467a9b16e7)"><path style=" stroke:none;fill-rule:evenodd;fill:#02071c;fill-opacity:1;" d="M 363.019531 120.246094 C 343.363281 137.183594 327.636719 159.359375 317.855469 187.183594 C 315.738281 193.335938 313.015625 200.792969 309.792969 209.867188 C 307.371094 216.417969 304.648438 223.878906 301.425781 232.246094 C 301.929688 232.144531 302.433594 231.945312 302.9375 231.84375 C 314.125 228.617188 325.417969 224.789062 336.40625 220.554688 C 359.089844 211.582031 380.460938 200.492188 397.496094 187.183594 C 397.800781 186.984375 398.101562 186.679688 398.40625 186.480469 C 423.808594 166.417969 439.433594 141.71875 435.503906 112.785156 C 435.097656 109.558594 434.394531 106.132812 433.386719 102.804688 C 431.570312 96.65625 429.554688 91.011719 427.136719 85.871094 C 403.546875 92.824219 381.570312 104.21875 363.019531 120.246094 Z M 363.019531 120.246094 "/></g><path style=" stroke:none;fill-rule:nonzero;fill:#02071c;fill-opacity:1;" d="M 344.269531 75.082031 C 347.191406 75.082031 349.914062 76.292969 351.828125 78.207031 C 353.746094 80.125 354.953125 82.84375 354.953125 85.769531 C 354.953125 88.691406 353.746094 91.414062 351.828125 93.328125 C 349.914062 95.246094 347.191406 96.453125 344.269531 96.453125 C 341.34375 96.453125 338.625 95.246094 336.707031 93.328125 C 334.792969 91.414062 333.582031 88.691406 333.582031 85.769531 C 333.582031 82.84375 334.792969 80.125 336.707031 78.207031 C 338.625 76.292969 341.34375 75.082031 344.269531 75.082031 Z M 344.269531 75.082031 "/><g clip-rule="nonzero" clip-path="url(#33a8af4e4f)"><path style=" stroke:none;fill-rule:evenodd;fill:#02071c;fill-opacity:1;" d="M 421.792969 102.101562 C 425.722656 131.03125 410.097656 155.730469 384.695312 175.792969 L 383.785156 176.5 C 366.75 189.703125 345.378906 200.894531 322.695312 209.867188 C 317.753906 211.78125 312.816406 213.597656 307.773438 215.3125 C 305.859375 220.453125 303.742188 226.097656 301.425781 232.246094 C 301.929688 232.144531 302.433594 231.945312 302.9375 231.84375 C 314.125 228.617188 325.417969 224.789062 336.40625 220.554688 C 359.089844 211.582031 380.460938 200.492188 397.496094 187.183594 C 397.800781 186.984375 398.101562 186.679688 398.40625 186.480469 C 423.808594 166.417969 439.433594 141.71875 435.503906 112.785156 C 435.097656 109.558594 434.394531 106.132812 433.386719 102.804688 C 431.570312 96.65625 429.554688 91.011719 427.136719 85.871094 C 424.210938 86.777344 421.390625 87.683594 418.566406 88.691406 C 418.96875 89.800781 419.273438 91.011719 419.675781 92.222656 C 420.582031 95.546875 421.289062 98.875 421.792969 102.101562 Z M 421.792969 102.101562 "/></g><g clip-rule="nonzero" clip-path="url(#7e7b763ca7)"><g clip-rule="nonzero" clip-path="url(#1df4725a5c)"><g clip-rule="nonzero" clip-path="url(#0e339c5949)"><path style=" stroke:none;fill-rule:nonzero;fill:#02071c;fill-opacity:1;" d="M 335.519531 5.839844 C 323.523438 -2.3125 312.332031 28.941406 308.710938 38.648438 C 298.785156 35.699219 267.085938 25.828125 266.375 40.316406 C 266.183594 44.285156 273.523438 51.730469 274.753906 54.761719 C 275.925781 57.652344 272.992188 66.480469 277.554688 70.113281 C 282.789062 74.277344 289.390625 71.824219 295.5625 67.828125 C 303.625 62.609375 308.761719 53.988281 311.949219 45.140625 C 320.933594 47.917969 330.910156 49.003906 339.929688 45.707031 C 346.835938 43.183594 352.769531 39.386719 352.59375 32.695312 C 352.4375 26.871094 343.617188 23.898438 342.015625 21.222656 C 340.335938 18.417969 338.808594 8.074219 335.519531 5.839844 "/></g></g></g><g clip-rule="nonzero" clip-path="url(#a3d95e7f47)"><g clip-rule="nonzero" clip-path="url(#c6d9e17977)"><g clip-rule="nonzero" clip-path="url(#3fdd1c4a2f)"><path style=" stroke:none;fill-rule:nonzero;fill:#02071c;fill-opacity:1;" d="M 350.023438 30.265625 C 350.148438 36.738281 344.316406 40.453125 337.546875 42.945312 C 331.042969 45.335938 324.050781 45.4375 317.316406 44.28125 C 317.609375 43.664062 317.683594 42.953125 317.5 42.269531 C 321.535156 41.558594 324.710938 40.792969 329.777344 39.632812 C 330.558594 39.4375 331.742188 39.136719 333.15625 38.675781 C 333.859375 38.441406 334.625 38.167969 335.382812 37.8125 C 335.867188 37.664062 336.453125 37.191406 336.730469 36.972656 C 336.660156 36.945312 336.574219 36.921875 336.46875 36.910156 C 336.066406 36.828125 335.566406 36.804688 335.0625 36.800781 C 334.042969 36.796875 332.953125 36.882812 331.84375 36.984375 C 329.601562 37.167969 327.367188 37.550781 324.898438 37.507812 C 324.582031 37.492188 324.25 37.464844 323.84375 37.359375 C 323.648438 37.304688 323.390625 37.207031 323.097656 36.964844 C 322.710938 36.585938 322.675781 36.210938 322.664062 35.839844 C 322.925781 34.476562 323.574219 34.339844 323.996094 33.878906 C 324.9375 33.132812 325.855469 32.59375 326.664062 32.023438 C 327.058594 31.746094 327.449219 31.460938 327.703125 31.203125 C 327.410156 31.136719 326.964844 31.207031 326.535156 31.402344 C 324.0625 32.699219 322.511719 34.398438 322.496094 34.296875 C 322.492188 34.296875 322.105469 34.628906 321.34375 35.210938 C 320.945312 35.496094 320.496094 35.859375 319.757812 36.199219 C 319.582031 36.285156 319.320312 36.347656 319.09375 36.414062 L 319 36.4375 C 317.257812 35.796875 318.515625 36.253906 318.125 36.109375 L 318.113281 36.097656 L 318.101562 36.070312 L 318.066406 36.019531 L 317.945312 35.816406 L 317.730469 35.378906 C 317.582031 34.746094 317.667969 34.148438 317.847656 33.671875 C 319.410156 30.09375 323.296875 27.917969 326.03125 24.445312 C 327.476562 22.769531 329.003906 20.972656 329.96875 19.167969 C 330.117188 18.90625 330.234375 18.570312 330.285156 18.367188 C 330.214844 18.367188 330.121094 18.371094 329.992188 18.394531 C 329.292969 18.484375 328.398438 19.046875 327.667969 19.597656 C 324.671875 21.976562 322.625 24.621094 321.59375 25.835938 C 318.574219 29.839844 316.804688 32.628906 314.324219 35.773438 L 314.269531 35.664062 C 313.550781 34.226562 311.800781 33.640625 310.359375 34.359375 L 304.292969 37.382812 C 302.851562 38.101562 302.265625 39.851562 302.984375 41.292969 L 303.222656 41.773438 C 298.753906 41.933594 295.347656 41.625 289.921875 41.625 C 288.332031 41.71875 284.992188 41.761719 281.289062 42.722656 C 280.40625 42.972656 279.421875 43.347656 278.925781 43.855469 C 278.832031 43.945312 278.773438 44.015625 278.730469 44.074219 C 278.925781 44.152344 279.261719 44.261719 279.558594 44.300781 C 281.582031 44.621094 283.933594 44.480469 286.144531 44.332031 C 290.5625 44.242188 294.640625 42.445312 298.4375 43.351562 C 298.925781 43.492188 299.457031 43.785156 299.871094 44.28125 L 300.089844 44.71875 L 300.183594 44.9375 L 300.203125 44.996094 L 300.210938 45.023438 L 300.21875 45.035156 C 300.097656 45.4375 300.488281 44.160156 299.953125 45.9375 L 299.878906 45.996094 C 299.6875 46.136719 299.484375 46.308594 299.304688 46.394531 C 298.589844 46.78125 298.03125 46.921875 297.5625 47.066406 C 296.640625 47.328125 296.140625 47.433594 296.140625 47.4375 C 296.210938 47.515625 293.917969 47.730469 291.398438 48.917969 C 290.984375 49.148438 290.660156 49.460938 290.535156 49.734375 C 290.894531 49.6875 291.359375 49.546875 291.816406 49.398438 C 292.757812 49.097656 293.738281 48.6875 294.902344 48.382812 C 295.527344 48.324219 296.023438 47.890625 297.269531 48.5 C 297.558594 48.734375 297.839844 48.988281 297.910156 49.523438 C 297.925781 49.902344 297.847656 50.167969 297.769531 50.359375 C 297.613281 50.742188 297.4375 51.027344 297.257812 51.289062 C 295.808594 53.289062 294.15625 54.839844 292.660156 56.523438 C 291.910156 57.34375 291.1875 58.167969 290.574219 58.980469 C 290.277344 59.386719 289.996094 59.800781 289.816406 60.167969 C 289.761719 60.265625 289.730469 60.347656 289.710938 60.414062 C 290.050781 60.328125 290.78125 60.144531 291.191406 59.847656 C 291.929688 59.453125 292.609375 59.007812 293.222656 58.589844 C 294.441406 57.734375 295.394531 56.972656 296.019531 56.464844 C 300.28125 52.878906 302.875 50.746094 306.167969 47.632812 C 306.5 48.152344 306.976562 48.53125 307.515625 48.753906 C 304.363281 55.042969 299.992188 60.792969 293.988281 64.664062 C 287.925781 68.570312 281.449219 70.992188 276.355469 66.996094 C 275.867188 66.613281 275.472656 66.167969 275.148438 65.675781 C 275.476562 67.425781 276.167969 69.007812 277.554688 70.113281 C 282.789062 74.277344 289.390625 71.824219 295.5625 67.828125 C 302.671875 63.226562 307.503906 55.976562 310.734375 48.261719 L 315.171875 46.046875 C 323.277344 48.113281 331.976562 48.617188 339.929688 45.707031 C 346.835938 43.183594 352.769531 39.386719 352.59375 32.695312 C 352.515625 29.914062 350.464844 27.78125 348.167969 26.023438 C 349.246094 27.246094 349.988281 28.636719 350.023438 30.265625 "/></g></g></g><g clip-rule="nonzero" clip-path="url(#cbeac2a66c)"><g clip-rule="nonzero" clip-path="url(#b124e5eef9)"><g clip-rule="nonzero" clip-path="url(#d42f233843)"><path style=" stroke:none;fill-rule:nonzero;fill:#02071c;fill-opacity:1;" d="M 310.300781 36.210938 L 305.808594 38.453125 C 304.742188 38.984375 304.304688 40.28125 304.839844 41.351562 L 307.078125 45.84375 C 307.609375 46.910156 308.910156 47.34375 309.976562 46.8125 L 314.472656 44.570312 C 315.539062 44.039062 315.972656 42.742188 315.441406 41.671875 L 313.199219 37.179688 C 312.667969 36.113281 311.371094 35.679688 310.300781 36.210938 "/></g></g></g><g clip-rule="nonzero" clip-path="url(#432211a384)"><g clip-rule="nonzero" clip-path="url(#68998b55fb)"><g clip-rule="nonzero" clip-path="url(#a014d004b1)"><g clip-rule="nonzero" clip-path="url(#d83761497b)"><path style=" stroke:none;fill-rule:nonzero;fill:#02071c;fill-opacity:1;" d="M 324.394531 84.433594 L 324.457031 84.457031 C 324.824219 84.585938 325.015625 84.988281 324.886719 85.359375 L 323.507812 89.261719 C 323.941406 89.410156 324.386719 89.574219 324.835938 89.761719 C 325.207031 89.914062 325.375 90.34375 325.210938 90.707031 L 325.183594 90.765625 C 325.027344 91.117188 324.617188 91.273438 324.265625 91.125 C 320.6875 89.640625 317.6875 89.542969 315.339844 90.835938 C 312.054688 92.640625 310.847656 96.742188 310.492188 98.324219 C 310.414062 98.683594 310.070312 98.921875 309.707031 98.871094 L 309.636719 98.859375 C 309.230469 98.804688 308.957031 98.414062 309.042969 98.011719 C 309.121094 97.648438 309.242188 97.171875 309.410156 96.625 L 305.289062 95.597656 C 304.914062 95.5 304.683594 95.117188 304.777344 94.738281 L 304.792969 94.675781 C 304.886719 94.296875 305.269531 94.066406 305.648438 94.160156 L 309.914062 95.222656 C 310.238281 94.445312 310.652344 93.609375 311.1875 92.800781 L 307.722656 90.515625 C 307.398438 90.300781 307.308594 89.863281 307.523438 89.539062 L 307.558594 89.484375 C 307.773438 89.15625 308.210938 89.066406 308.539062 89.28125 L 312.085938 91.621094 C 312.636719 90.984375 313.277344 90.394531 314.027344 89.902344 L 312.335938 86.660156 C 312.152344 86.3125 312.289062 85.886719 312.632812 85.707031 L 312.691406 85.675781 C 313.039062 85.496094 313.464844 85.628906 313.644531 85.972656 L 315.328125 89.195312 C 316.109375 88.851562 316.9375 88.628906 317.8125 88.523438 L 317.984375 84.328125 C 318 83.9375 318.328125 83.636719 318.71875 83.652344 L 318.785156 83.65625 C 319.175781 83.671875 319.476562 84 319.460938 84.390625 L 319.296875 88.457031 C 320.183594 88.476562 321.113281 88.609375 322.085938 88.84375 L 323.492188 84.867188 C 323.621094 84.496094 324.023438 84.304688 324.394531 84.433594 Z M 330.8125 81.039062 L 334.882812 82.160156 C 335.242188 81.226562 335.667969 80.390625 336.15625 79.648438 L 332.722656 77.460938 C 332.394531 77.25 332.296875 76.816406 332.507812 76.484375 L 332.542969 76.429688 C 332.75 76.101562 333.1875 76.003906 333.515625 76.214844 L 337.058594 78.46875 C 337.644531 77.808594 338.300781 77.257812 339.027344 76.8125 L 337.34375 73.589844 C 337.164062 73.246094 337.296875 72.820312 337.644531 72.636719 L 337.703125 72.605469 C 338.046875 72.425781 338.476562 72.558594 338.65625 72.90625 L 340.351562 76.148438 C 341.183594 75.816406 342.035156 75.621094 342.871094 75.53125 L 342.976562 71.289062 C 342.988281 70.898438 343.3125 70.589844 343.703125 70.597656 L 343.765625 70.601562 C 344.15625 70.609375 344.464844 70.933594 344.457031 71.324219 L 344.351562 75.472656 C 345.320312 75.496094 346.246094 75.628906 347.070312 75.8125 L 348.632812 71.703125 C 348.769531 71.335938 349.179688 71.152344 349.542969 71.292969 L 349.605469 71.316406 C 349.96875 71.453125 350.152344 71.863281 350.015625 72.226562 L 348.503906 76.195312 C 349.050781 76.371094 349.511719 76.542969 349.855469 76.6875 C 350.234375 76.84375 350.398438 77.292969 350.214844 77.660156 L 350.179688 77.722656 C 350.015625 78.050781 349.625 78.195312 349.285156 78.054688 C 347.785156 77.441406 343.726562 76.09375 340.367188 77.757812 C 337.964844 78.949219 336.335938 81.46875 335.511719 85.25 C 335.429688 85.625 335.066406 85.871094 334.691406 85.800781 L 334.625 85.789062 C 334.234375 85.714844 333.980469 85.332031 334.0625 84.941406 C 334.167969 84.464844 334.285156 84.003906 334.414062 83.5625 L 330.421875 82.464844 C 330.042969 82.363281 329.824219 81.972656 329.925781 81.597656 L 329.945312 81.535156 C 330.046875 81.15625 330.4375 80.9375 330.8125 81.039062 "/></g></g></g></g><g clip-rule="nonzero" clip-path="url(#5157a2bd05)"><g clip-rule="nonzero" clip-path="url(#051d515b17)"><g transform="matrix(1,0,0,1,312,40)"><g id="658e0f9b11" clip-path="url(#8e6d2d0fc0)"><g clip-rule="nonzero" clip-path="url(#3421b5149d)"><g clip-rule="nonzero" clip-path="url(#363d658d2d)"><rect x="0" width="48" y="0" height="15" style="fill:#02071c;fill-opacity:1;stroke:none;"/></g></g></g></g></g></g><g clip-rule="nonzero" clip-path="url(#b596a84ab0)"><g clip-rule="nonzero" clip-path="url(#c1ea00fb3c)"><g transform="matrix(1,0,0,1,314,43)"><g id="0e788855f2" clip-path="url(#6c2977baa0)"><g clip-rule="nonzero" clip-path="url(#4738b5944f)"><g clip-rule="nonzero" clip-path="url(#7ab775c2fd)"><rect x="0" width="8" y="0" height="6" style="fill:#02071c;fill-opacity:1;stroke:none;"/></g></g></g></g></g></g><g clip-rule="nonzero" clip-path="url(#9d96b6958d)"><g clip-rule="nonzero" clip-path="url(#d205083bc5)"><g transform="matrix(1,0,0,1,314,43)"><g id="05bd02dd68" clip-path="url(#af22c1d279)"><g clip-rule="nonzero" clip-path="url(#076f4bfbf5)"><g clip-rule="nonzero" clip-path="url(#54a6d6c4ae)"><rect x="0" width="7" y="0" height="6" style="fill:#02071c;fill-opacity:1;stroke:none;"/></g></g></g></g></g></g><g clip-rule="nonzero" clip-path="url(#aebcd57b9f)"><g clip-rule="nonzero" clip-path="url(#fc1d6238ae)"><g transform="matrix(1,0,0,1,313,43)"><g id="039cd40f61" clip-path="url(#01bce33e30)"><g clip-rule="nonzero" clip-path="url(#0428071dc9)"><g clip-rule="nonzero" clip-path="url(#dda2c7c2cb)"><rect x="0" width="8" y="0" height="7" style="fill:#02071c;fill-opacity:1;stroke:none;"/></g></g></g></g></g></g><g clip-rule="nonzero" clip-path="url(#e7173a92a2)"><g clip-rule="nonzero" clip-path="url(#127f63eb26)"><g transform="matrix(1,0,0,1,310,43)"><g id="1e8df60837" clip-path="url(#622cabd229)"><g clip-rule="nonzero" clip-path="url(#d7fbac3ac2)"><g clip-rule="nonzero" clip-path="url(#82de1d7d7f)"><rect x="0" width="12" y="0" height="9" style="fill:#02071c;fill-opacity:1;stroke:none;"/></g></g></g></g></g></g><g clip-rule="nonzero" clip-path="url(#800b5ec2cf)"><g clip-rule="nonzero" clip-path="url(#e1841bdfa0)"><g transform="matrix(1,0,0,1,311,43)"><g id="5b8576f313" clip-path="url(#0f0713d857)"><g clip-rule="nonzero" clip-path="url(#3554387185)"><g clip-rule="nonzero" clip-path="url(#0624fab087)"><rect x="0" width="14" y="0" height="12" style="fill:#02071c;fill-opacity:1;stroke:none;"/></g></g></g></g></g></g></g></g></g></svg>
