<svg xmlns="http://www.w3.org/2000/svg" width="1440" height="500" viewBox="0 0 1440 500" version="1.1">
	<path fill-opacity="0.137" d="M 471.317 51.948 C 469.567 53.016, 466.270 56.247, 463.992 59.129 C 460.120 64.028, 451.890 79.919, 448.975 88.127 C 448.004 90.862, 446.610 92.277, 443.303 93.884 L 438.918 96.014 429.209 93.596 C 416.354 90.394, 412.243 89.791, 403.090 89.763 C 391.939 89.729, 386.079 93.283, 385.817 100.238 C 385.686 103.730, 386.246 104.814, 394.750 117.531 C 397.872 122.200, 398.791 126.289, 397.235 128.583 C 396.831 129.178, 390.631 132.614, 383.458 136.219 C 351.034 152.510, 324.738 168.901, 293.887 192.049 C 275.048 206.184, 269.540 209.762, 257.077 215.959 C 236.829 226.027, 213.289 232.457, 187.576 234.944 C 175.058 236.154, 156.040 236.321, 154.372 235.235 C 153.752 234.831, 152.915 232.475, 152.513 230 C 148.373 204.568, 128.877 182.410, 96.049 165.831 C 83.541 159.513, 81.914 159.684, 78.377 167.682 C 70.846 184.710, 66.099 205.990, 66.036 223 C 66.003 231.680, 68.115 245.821, 70.530 253.091 C 71.451 255.862, 72.045 258.213, 71.852 258.315 C 71.658 258.417, 68.447 260.020, 64.715 261.877 C 51.451 268.480, 35.553 286.338, 20.907 311.088 C 12.553 325.206, 11.470 327.754, 12.346 331.242 C 12.877 333.357, 14.151 334.216, 19.248 335.896 C 34.973 341.079, 42.806 342.323, 60 342.367 C 75.158 342.407, 77.264 342.185, 85.891 339.647 C 100.678 335.295, 112.380 328.819, 121.842 319.750 C 124.568 317.138, 127.260 315, 127.825 315 C 128.391 315, 132.149 317.179, 136.177 319.842 C 144.037 325.039, 159.979 335, 160.436 335 C 160.588 335, 164.715 337.304, 169.607 340.120 C 184.801 348.867, 214.759 363.255, 231.750 369.965 C 240.688 373.495, 248 376.942, 248 377.626 C 248 378.310, 247.512 380.137, 246.915 381.685 C 243.664 390.116, 241.016 407.845, 241.008 421.227 C 240.997 440.044, 240.555 439.790, 263.500 434.152 C 305.639 423.798, 336.190 410.037, 357.973 391.600 C 364.157 386.366, 364.746 386.105, 373.947 384.539 C 387.669 382.204, 400.926 379.366, 421.867 374.283 C 443.382 369.060, 450.904 366.839, 468.500 360.512 C 475.650 357.941, 482.243 355.608, 483.151 355.328 C 484.361 354.955, 484.984 355.649, 485.485 357.931 C 487.425 366.764, 507.744 407.750, 511.415 410.235 C 515.295 412.861, 526.888 407.775, 535.776 399.547 C 552.710 383.869, 564.150 356.842, 570.575 317.333 L 572.392 306.166 577.834 301.833 C 586.220 295.157, 601.601 278.385, 607.486 269.500 C 618.182 253.351, 623.709 237.737, 624.653 221 C 625.420 207.407, 623.920 196.118, 619.555 182.639 C 602.276 129.272, 564.374 100, 512.553 100 L 504.251 100 506.298 95.863 C 508.179 92.061, 508.229 91.397, 506.922 87.655 C 505.601 83.873, 502.610 80.906, 495.174 76 C 493.623 74.976, 491.815 71.324, 489.483 64.500 C 485.677 53.367, 482.937 49.998, 477.694 50.004 C 475.937 50.006, 473.068 50.881, 471.317 51.948 M 872 133.626 C 863.994 134.573, 853.098 137.410, 847.154 140.095 C 828.671 148.444, 814.731 164.611, 809.361 183.926 L 807.672 190 797.836 190 L 788 190 788 163 L 788 136 772 136 L 756 136 756 205.500 L 756 275 772 275 L 788 275 788 247.500 L 788 220 798 220 C 806.852 220, 808.002 220.201, 808.013 221.750 C 808.021 222.713, 809.300 227.159, 810.857 231.630 C 816.574 248.053, 829.156 262.433, 844.315 269.868 C 857.025 276.103, 863.209 277.415, 880 277.436 C 896.595 277.457, 905.333 275.562, 917.064 269.397 C 948.354 252.954, 961.887 214.298, 948.886 178.500 C 939.293 152.086, 915.241 135.364, 884.442 133.696 C 879.524 133.430, 873.925 133.398, 872 133.626 M 978 205.500 L 978 275 994 275 L 1010 275 1010 247.500 L 1010 220 1037 220 L 1064 220 1064 247.500 L 1064 275 1080 275 L 1096 275 1096 205.500 L 1096 136 1080 136 L 1064 136 1064 162.500 L 1064 189 1037 189 L 1010 189 1010 162.500 L 1010 136 994 136 L 978 136 978 205.500 M 1129 205.500 L 1129 275 1142.750 274.960 L 1156.500 274.919 1186 233.332 L 1215.500 191.744 1215.761 233.372 L 1216.022 275 1232.011 275 L 1248 275 1248 205.500 L 1248 136 1234.250 136.047 L 1220.500 136.093 1191 177.565 L 1161.500 219.037 1161.239 177.519 L 1160.978 136 1144.989 136 L 1129 136 1129 205.500 M 1408.886 159.999 C 1404.050 162.554, 1401.624 167.731, 1402.243 174.173 C 1403.232 184.466, 1414.339 190.138, 1423.929 185.248 C 1428.562 182.886, 1431.130 179.106, 1431.665 173.864 C 1432.880 161.936, 1420.025 154.111, 1408.886 159.999 M 868.500 165.346 C 856.645 168.434, 848.634 174.915, 843.278 185.752 C 839.533 193.329, 839.500 193.502, 839.523 205.448 C 839.542 215.653, 839.897 218.381, 841.843 223.247 C 845.042 231.245, 852.545 239.158, 860.770 243.208 C 866.656 246.105, 868.509 246.505, 877.606 246.842 C 886.083 247.156, 888.909 246.856, 894.164 245.085 C 909.501 239.915, 918.774 227.555, 920.562 209.897 C 922.434 191.407, 911.971 172.930, 896.247 166.959 C 889.144 164.262, 875.668 163.478, 868.500 165.346 M 1332.929 197.316 C 1322.762 200.172, 1315.201 206.735, 1311.669 215.770 C 1308.801 223.107, 1308.664 223, 1320.974 223 L 1331.949 223 1333.430 220.135 C 1335.331 216.459, 1340.550 214, 1346.451 214 C 1354.866 214, 1361 219.116, 1361 226.135 L 1361 230 1343.750 230.006 C 1325.483 230.011, 1321.292 230.654, 1315.920 234.275 C 1309.906 238.327, 1306.810 243.930, 1306.249 251.770 C 1305.613 260.656, 1307.107 265.159, 1312.469 270.522 C 1318.181 276.233, 1324.882 278.442, 1336.500 278.442 C 1346.763 278.442, 1353.555 276.554, 1359.945 271.925 L 1364.035 268.962 1365.018 271.546 C 1365.558 272.967, 1366 274.776, 1366 275.565 C 1366 276.705, 1367.848 277, 1375 277 L 1384 277 1384 249.538 C 1384 224.002, 1383.851 221.677, 1381.879 216.407 C 1379.057 208.863, 1374.196 203.714, 1366.163 199.760 C 1360.049 196.750, 1358.698 196.482, 1348.521 196.266 C 1341.860 196.125, 1335.692 196.540, 1332.929 197.316 M 1405 237.500 L 1405 277 1417 277 L 1429 277 1429 237.500 L 1429 198 1417 198 L 1405 198 1405 237.500 M 1332.763 246.565 C 1329.724 248.214, 1328.448 251.663, 1329.429 255.573 C 1330.355 259.262, 1337.805 262.436, 1343.657 261.634 C 1352.502 260.421, 1359.242 255.042, 1360.633 248.084 L 1361.250 245 1348.375 245.040 C 1338.945 245.069, 1334.768 245.477, 1332.763 246.565 M 1272.071 252.752 C 1266.890 255.394, 1264.615 259.130, 1264.615 265 C 1264.615 279.414, 1283.404 284.227, 1291.005 271.759 C 1296.352 262.990, 1289.130 251.003, 1278.500 251.003 C 1276.850 251.003, 1273.957 251.790, 1272.071 252.752 M 771.222 318.470 C 760.971 321.671, 754.967 329.841, 754.211 341.615 C 753.420 353.939, 758.350 362.925, 768.493 367.649 C 776.816 371.525, 788.358 370.442, 795.891 365.078 C 798.958 362.894, 803.440 356.712, 804.467 353.250 C 805.068 351.224, 804.793 351, 801.700 351 C 798.790 351, 797.854 351.623, 795.567 355.079 C 789.642 364.031, 774.987 365.619, 766.645 358.212 C 761.127 353.312, 759.425 341.885, 763.086 334.323 C 769.202 321.688, 787.957 320.777, 795.500 332.749 C 797.148 335.364, 798.151 335.930, 801.198 335.961 L 804.896 336 803.772 332.777 C 803.154 331.004, 800.533 327.438, 797.947 324.852 C 790.814 317.719, 781.075 315.393, 771.222 318.470 M 1288.880 318.113 C 1280.159 320.580, 1275.531 330.742, 1279.934 337.755 C 1282.202 341.369, 1289 344.973, 1298.353 347.521 C 1308.240 350.215, 1311.530 355.561, 1306.436 360.655 C 1304.072 363.019, 1303.324 363.187, 1296.816 362.820 C 1290.599 362.468, 1289.476 362.092, 1287.379 359.655 C 1286.071 358.133, 1285 356.014, 1285 354.944 C 1285 353.389, 1284.300 353, 1281.500 353 C 1278.318 353, 1278 353.259, 1278 355.852 C 1278 363.412, 1287.098 370.016, 1297.462 369.978 C 1308.998 369.936, 1315.988 364.323, 1315.996 355.095 C 1315.999 351.284, 1315.482 350.197, 1312.152 347.030 C 1309.639 344.639, 1306.257 342.761, 1302.402 341.617 C 1291.210 338.293, 1287.912 336.795, 1286.268 334.286 C 1284.798 332.042, 1284.778 331.486, 1286.090 329.149 C 1287.994 325.757, 1291.507 324.029, 1296.500 324.029 C 1302.007 324.029, 1305.174 325.851, 1307.332 330.258 C 1308.825 333.307, 1309.705 334, 1312.082 334 C 1314.624 334, 1315 333.632, 1315 331.148 C 1315 327.466, 1311.376 322.124, 1307.241 319.709 C 1303.404 317.468, 1294.037 316.654, 1288.880 318.113 M 1327 343.500 L 1327 369 1330.478 369 L 1333.956 369 1334.228 350.328 L 1334.500 331.657 1342.500 343.809 C 1353.217 360.089, 1353.267 360.090, 1363.745 344.354 L 1371.500 332.708 1371.773 350.854 L 1372.045 369 1375.523 369 L 1379 369 1379 343.500 L 1379 318 1375.957 318 C 1373.137 318, 1372.201 319.093, 1363.198 332.896 L 1353.482 347.791 1343.597 332.896 C 1334.126 318.624, 1333.572 318, 1330.356 318 L 1327 318 1327 343.500 M 1394 343.500 L 1394 369 1407.040 369 C 1421.772 369, 1426.665 367.482, 1429.479 362.040 C 1432.578 356.047, 1430.190 345.438, 1425.321 343.570 C 1423.919 343.032, 1424.077 342.529, 1426.421 340.082 C 1432.327 333.918, 1430.218 324.375, 1422.038 320.250 C 1418.164 318.296, 1416.024 318, 1405.788 318 L 1394 318 1394 343.500 M 1401 332.500 L 1401 340 1408.550 340 C 1419.989 340, 1424.635 336.431, 1422.050 329.630 C 1420.643 325.930, 1418.034 325, 1409.066 325 L 1401 325 1401 332.500 M 874.764 330.996 C 864.410 334.113, 859.034 343.447, 861.130 354.668 C 862.827 363.750, 870.521 369.933, 880.185 369.978 C 885.984 370.005, 889.662 368.666, 893.339 365.186 C 896.214 362.466, 899 357.970, 899 356.050 C 899 355.472, 897.497 355, 895.661 355 C 893.088 355, 892.065 355.562, 891.206 357.447 C 889.514 361.162, 885.365 363.385, 880.132 363.382 C 874.103 363.379, 870.533 360.963, 868.432 355.462 C 866.319 349.930, 867.147 344.987, 870.886 340.802 C 873.224 338.184, 874.560 337.618, 879.326 337.223 C 884.870 336.763, 885.075 336.840, 889.112 340.877 C 892.036 343.800, 894.074 345, 896.118 345 C 899.388 345, 899.631 344.121, 897.501 340.002 C 893.729 332.709, 883.082 328.491, 874.764 330.996 M 957.637 331.465 C 942.123 336.995, 940.564 360.770, 955.250 367.879 C 963.804 372.020, 975.054 369.729, 980.366 362.764 C 981.815 360.865, 983 359.016, 983 358.656 C 983 358.295, 981.313 358.008, 979.250 358.017 C 976.584 358.030, 974.828 358.743, 973.175 360.486 C 968.463 365.455, 959.911 364.940, 955.042 359.395 C 949.614 353.213, 950.045 353, 968 353 L 984 353 983.994 350.250 C 983.972 339.126, 974.824 329.884, 964 330.049 C 962.625 330.071, 959.762 330.707, 957.637 331.465 M 815 350 L 815 369 818.399 369 C 821.556 369, 822.566 368.048, 832.649 355.564 L 843.500 342.128 843.778 355.564 L 844.056 369 847.528 369 L 851 369 851 350 L 851 331 847.707 331 C 844.687 331, 843.504 332.119, 833.457 344.488 L 822.500 357.976 822.222 344.488 L 821.944 331 818.472 331 L 815 331 815 350 M 905 333.976 L 905 337 912 337 L 919 337 919 353 L 919 369 922.500 369 L 926 369 926 353 L 926 337 933.066 337 L 940.133 337 939.816 334.250 L 939.500 331.500 922.250 331.226 L 905 330.953 905 333.976 M 994 349.937 L 994 369 997.470 369 L 1000.940 369 1001.220 356.363 L 1001.500 343.725 1006.906 351.363 C 1014.256 361.747, 1015.714 361.737, 1023.066 351.250 L 1028.500 343.500 1028.780 356.250 L 1029.060 369 1032.530 369 L 1036 369 1036 350 L 1036 331 1032.750 331.034 C 1029.777 331.064, 1028.907 331.918, 1022.545 341.049 C 1018.719 346.538, 1015.240 350.911, 1014.814 350.765 C 1014.388 350.619, 1010.968 346.225, 1007.214 341 C 1001.313 332.786, 999.956 331.458, 997.194 331.187 L 994 330.873 994 349.937 M 1049 350 L 1049 369 1060.250 368.993 C 1069.685 368.988, 1071.973 368.675, 1074.433 367.054 C 1078.357 364.467, 1079.922 361.383, 1079.965 356.154 C 1080.038 347.191, 1074.622 343, 1062.966 343 L 1056 343 1056 337 L 1056 331 1052.500 331 L 1049 331 1049 350 M 1089 350 L 1089 369 1092.500 369 L 1096 369 1096 350 L 1096 331 1092.500 331 L 1089 331 1089 350 M 1130.653 335.223 C 1130.334 337.575, 1129.782 343.775, 1129.429 349 C 1128.712 359.576, 1127.257 363, 1123.477 363 C 1121.047 363, 1121 363.153, 1121 371 L 1121 379 1124.500 379 L 1128 379 1128 374 L 1128 369 1143.500 369 L 1159 369 1159 374 L 1159 379 1162.500 379 L 1166 379 1166 371 L 1166 363 1163.025 363 L 1160.051 363 1159.775 347.250 L 1159.500 331.500 1145.368 331.223 L 1131.235 330.947 1130.653 335.223 M 1177.999 333.223 C 1177.998 336.830, 1176.054 357.262, 1175.473 359.780 C 1175.117 361.322, 1173.984 362.253, 1171.973 362.655 C 1169.503 363.149, 1169 363.736, 1169 366.125 C 1169 368.643, 1169.367 369, 1171.953 369 C 1175.853 369, 1179.296 367.358, 1180.950 364.708 C 1181.689 363.526, 1182.795 356.920, 1183.408 350.029 L 1184.523 337.500 1192.762 337.210 L 1201 336.919 1201 352.960 L 1201 369 1204.522 369 L 1208.044 369 1207.772 350.250 L 1207.500 331.500 1192.750 331.223 L 1178 330.947 1177.999 333.223 M 1225.415 332.421 C 1223.719 333.160, 1221.356 335.003, 1220.165 336.517 C 1216.192 341.568, 1218.017 351.373, 1223.461 354.226 L 1225.898 355.502 1221.949 361.713 C 1219.777 365.129, 1218 368.166, 1218 368.462 C 1218 368.758, 1219.688 368.995, 1221.750 368.989 C 1225.249 368.979, 1225.748 368.578, 1229.207 362.989 C 1232.856 357.093, 1232.984 357, 1237.457 357 L 1242 357 1242 363 L 1242 369 1245.500 369 L 1249 369 1249 350 L 1249 331 1238.750 331.039 C 1232.453 331.063, 1227.310 331.596, 1225.415 332.421 M 957.763 338.565 C 955.457 339.816, 952 344.546, 952 346.450 C 952 346.753, 957.625 347, 964.500 347 C 978.758 347, 979.594 346.394, 973.600 340.400 C 970.649 337.449, 969.559 337.005, 965.350 337.040 C 962.683 337.062, 959.268 337.748, 957.763 338.565 M 1136.532 345.750 C 1136.177 350.563, 1135.516 356.413, 1135.064 358.750 L 1134.242 363 1143.621 363 L 1153 363 1153 350 L 1153 337 1145.090 337 L 1137.180 337 1136.532 345.750 M 1230.157 337.995 C 1225.732 339.041, 1224.675 340.257, 1224.786 344.173 C 1224.915 348.731, 1227.182 350, 1235.191 350 L 1242 350 1242 343.500 L 1242 337 1237.750 337.102 C 1235.412 337.159, 1231.996 337.560, 1230.157 337.995 M 1401 354.361 L 1401 363 1408.351 363 C 1420.127 363, 1424 360.832, 1424 354.240 C 1424 348.899, 1420.391 346.828, 1410.055 346.239 L 1401 345.723 1401 354.361 M 1056 355.866 L 1056 363 1062.545 363 C 1068.228 363, 1069.427 362.664, 1071.641 360.450 C 1073.626 358.465, 1074.045 357.300, 1073.530 355.200 C 1072.455 350.812, 1070.646 349.779, 1063.087 349.238 L 1056 348.731 1056 355.866" stroke="none" fill="black" fill-rule="evenodd"/>
	<path fill-opacity="0.468" d="M 471.431 52.458 C 465.076 56.268, 456.692 69.531, 450.016 86.336 C 448.050 91.285, 447.059 92.483, 443.503 94.211 L 439.309 96.248 427.905 93.517 C 407.679 88.673, 394.001 88.845, 388.837 94.009 C 384.277 98.569, 384.897 102.248, 392 112.760 C 396.852 119.941, 397.994 122.392, 397.968 125.570 L 397.936 129.500 383.218 136.713 C 354.916 150.583, 320.787 172.007, 290.766 194.749 C 267.705 212.218, 250.430 221.185, 226.957 227.871 C 206.131 233.803, 190.308 235.979, 167.920 235.992 L 153.341 236 151.649 228.250 C 148.190 212.408, 140.845 199.722, 128.404 188.104 C 117.681 178.089, 102.027 168.072, 89.379 163.131 C 84.854 161.364, 84.019 161.298, 82.205 162.569 C 79.687 164.333, 73.829 179.202, 70.611 192 C 65.458 212.490, 65.136 232.084, 69.679 248.766 C 72.493 259.097, 72.725 258.228, 66.320 261.366 C 58.108 265.388, 49.060 273.038, 40.766 282.969 C 28.445 297.723, 11.533 325.684, 12.178 330.233 C 12.814 334.715, 28.984 339.759, 49.958 342.019 C 77.370 344.973, 103.764 336.526, 122.638 318.758 L 127.776 313.922 140.796 322.405 C 170.699 341.888, 211.047 362.282, 242.803 373.965 C 247.729 375.777, 248.968 376.634, 248.475 377.892 C 246.586 382.711, 242.942 398.609, 242.039 405.974 C 240.677 417.078, 240.712 432.593, 242.103 435.193 C 243.099 437.054, 243.815 437.193, 249.433 436.617 C 258.061 435.733, 285.980 428.118, 301 422.552 C 324.699 413.769, 342.846 403.775, 357.701 391.323 C 364.089 385.969, 365.537 385.212, 370.518 384.627 C 392.698 382.020, 442.879 369.476, 469 360.008 C 486.022 353.839, 484.078 353.462, 487.909 363.672 C 491.724 373.839, 506.942 404.140, 510.432 408.517 C 512.755 411.430, 512.853 411.454, 517.466 410.220 C 523.618 408.575, 531.520 403.437, 538.253 396.704 C 552.794 382.163, 564.322 353.910, 569.958 319 L 571.977 306.500 577.238 302.082 C 592.197 289.524, 605.961 273.021, 613.587 258.500 C 626.569 233.781, 628.264 210.061, 619.053 182 C 612.802 162.958, 602.495 144.802, 591.044 132.664 C 571.519 111.966, 548.319 101.989, 515.802 100.305 L 504.104 99.700 505.552 96.900 C 506.348 95.359, 507 92.368, 507 90.253 C 507 86.174, 504.262 82.857, 495.785 76.665 C 492.694 74.408, 491.710 72.738, 489.923 66.726 C 487.028 56.984, 484.674 52.628, 481.533 51.197 C 477.776 49.485, 476.026 49.703, 471.431 52.458 M 860.333 135.849 C 856.391 136.851, 849.204 139.572, 844.360 141.896 C 828.204 149.649, 814.059 166.820, 809.678 184 L 808.276 189.500 798.154 189.785 L 788.033 190.070 787.766 163.285 L 787.500 136.500 771.750 136.225 L 756 135.949 756 205.475 L 756 275 772 275 L 788 275 788 247.500 L 788 220 797.771 220 L 807.543 220 810.217 228.750 C 814.739 243.547, 823.302 255.649, 835.127 263.953 C 849.320 273.920, 867.021 278.772, 885 277.624 C 918.478 275.486, 943.175 255.872, 951.116 225.118 C 953.586 215.552, 953.794 198.577, 951.567 188.184 C 946.248 163.356, 927.362 143.462, 902.500 136.498 C 893.179 133.887, 869.487 133.522, 860.333 135.849 M 978.667 136.667 C 978.300 137.033, 978 168.308, 978 206.167 L 978 275 994 275 L 1010 275 1010 247 L 1010 219 1037 219 L 1064 219 1064 247 L 1064 275 1080.007 275 L 1096.014 275 1095.757 205.750 L 1095.500 136.500 1079.750 136.225 L 1064 135.949 1064 162.975 L 1064 190 1037 190 L 1010 190 1010 163 L 1010 136 994.667 136 C 986.233 136, 979.033 136.300, 978.667 136.667 M 1129 205.500 L 1129 275 1142.438 275 L 1155.877 275 1185.938 232.821 L 1216 190.642 1216 232.821 L 1216 275 1232 275 L 1248 275 1248 205.500 L 1248 136 1234.544 136 L 1221.087 136 1192.405 176.250 C 1176.630 198.387, 1162.885 217.387, 1161.861 218.472 C 1160.044 220.397, 1160 219.437, 1160 178.222 L 1160 136 1144.500 136 L 1129 136 1129 205.500 M 1410.415 159.421 C 1397.582 165.009, 1400.432 184.443, 1414.392 186.536 C 1421.303 187.572, 1427.501 184.383, 1430.131 178.437 C 1435.764 165.702, 1423.393 153.771, 1410.415 159.421 M 865.836 165.864 C 858.400 168.314, 854.160 171.018, 849.032 176.581 C 834.506 192.340, 835.209 221.587, 850.469 236.418 C 865.582 251.106, 892.719 251.440, 908.245 237.128 C 922.255 224.214, 925.148 199.597, 914.708 182.135 C 910.841 175.668, 905.390 170.992, 897.430 167.314 C 889.537 163.667, 874.590 162.981, 865.836 165.864 M 1333 197.605 C 1321.611 200.655, 1312.786 209.357, 1310.543 219.750 L 1309.841 223 1320.671 222.994 L 1331.500 222.987 1333.163 220.064 C 1335.449 216.046, 1340.152 213.857, 1346.500 213.857 C 1355.722 213.857, 1361 218.441, 1361 226.450 L 1361 230 1344.035 230 C 1320.570 230, 1313.927 232.486, 1308.549 243.278 C 1303.901 252.606, 1305.491 262.799, 1312.758 270.256 C 1322.547 280.302, 1344.970 281.136, 1359.365 271.989 C 1362.041 270.289, 1364.364 269.033, 1364.526 269.199 C 1364.688 269.364, 1365.226 271.075, 1365.721 273 L 1366.622 276.500 1375.380 276.790 L 1384.138 277.080 1383.804 248.290 C 1383.446 217.468, 1383.509 217.875, 1377.836 209.381 C 1370.456 198.332, 1350.174 193.005, 1333 197.605 M 1405 237.500 L 1405 277 1416.500 277 L 1428 277 1428 237.500 L 1428 198 1416.500 198 L 1405 198 1405 237.500 M 1335.021 245.116 C 1325.850 248.775, 1327.425 259.676, 1337.395 261.546 C 1348.432 263.617, 1361 255.793, 1361 246.852 L 1361 244 1349.250 244.063 C 1342.787 244.098, 1336.384 244.572, 1335.021 245.116 M 1273.500 252.530 C 1271.300 253.322, 1269.424 253.977, 1269.332 253.985 C 1269.239 253.993, 1268.226 255.516, 1267.082 257.368 C 1264.583 261.411, 1264.360 267.861, 1266.571 272.137 C 1268.731 276.315, 1275.762 279.385, 1281.102 278.483 C 1289.431 277.076, 1294.276 269.453, 1292.064 261.238 C 1290.020 253.648, 1281.500 249.652, 1273.500 252.530 M 772.810 318.386 C 753.833 323.541, 747.441 348.493, 761.496 362.549 C 773.984 375.036, 796.767 370.802, 803.463 354.750 L 805.027 351 801.681 351 C 798.933 351, 797.903 351.656, 795.918 354.672 C 792.449 359.940, 788.859 362.211, 783.131 362.761 C 775.862 363.460, 771.444 362.329, 767.330 358.716 C 762.728 354.676, 761 350.521, 761 343.492 C 761 334.687, 764.776 328.663, 772.254 325.538 C 780.563 322.067, 790.981 324.992, 795.699 332.121 C 797.688 335.128, 798.911 336, 801.133 336 C 804.875 336, 804.795 334.410, 800.750 328.386 C 795.135 320.023, 782.902 315.645, 772.810 318.386 M 1291.120 318.095 C 1283.180 319.627, 1278.820 324.104, 1278.641 330.907 C 1278.438 338.669, 1283.644 343.351, 1296 346.518 C 1304.025 348.574, 1307.910 350.792, 1308.650 353.740 C 1310.198 359.910, 1306.068 363.500, 1297.422 363.500 C 1291.281 363.500, 1287.304 361.143, 1285.070 356.179 C 1283.931 353.649, 1283.037 353, 1280.689 353 C 1277.874 353, 1277.764 353.161, 1278.308 356.510 C 1279.703 365.108, 1286.400 369.516, 1298 369.470 C 1309.561 369.425, 1314.771 365.672, 1315.679 356.736 C 1316.488 348.778, 1310.048 343.252, 1296.192 340.013 C 1286.631 337.779, 1282.612 332.171, 1286.834 326.957 C 1288.233 325.229, 1290.009 324.581, 1294.329 324.223 C 1301.667 323.614, 1305.815 325.313, 1307.636 329.672 C 1308.789 332.432, 1309.558 333, 1312.138 333 C 1315.081 333, 1315.217 332.833, 1314.633 329.916 C 1312.822 320.860, 1302.829 315.836, 1291.120 318.095 M 1328 343.500 L 1328 369 1331 369 L 1334 369 1334 349.756 L 1334 330.512 1342.512 343.256 C 1349.385 353.547, 1351.475 356, 1353.371 356 C 1355.271 356, 1357.324 353.578, 1364.110 343.332 L 1372.500 330.663 1372.772 349.832 L 1373.043 369 1376.022 369 L 1379 369 1379 343.500 L 1379 318 1376.092 318 C 1373.442 318, 1372.320 319.333, 1363.467 333 C 1358.123 341.250, 1353.646 348, 1353.519 348 C 1353.392 348, 1348.835 341.260, 1343.394 333.021 C 1334.651 319.785, 1333.180 318.040, 1330.750 318.021 L 1328 318 1328 343.500 M 1394 343.382 L 1394 369 1406.750 368.998 C 1421.311 368.997, 1424.863 367.870, 1428.819 362 C 1432.269 356.882, 1431.498 349.727, 1427.071 345.772 L 1423.885 342.925 1426.442 339.886 C 1431.377 334.021, 1429.808 324.899, 1423.158 320.789 C 1420.039 318.861, 1417.823 318.506, 1406.776 318.162 L 1394 317.764 1394 343.382 M 1400.750 324.564 C 1400.338 324.987, 1400 328.633, 1400 332.667 L 1400 340 1409.045 340 C 1417.316 340, 1418.301 339.790, 1420.545 337.545 C 1423.634 334.457, 1423.672 330.893, 1420.654 327.385 C 1418.520 324.903, 1417.553 324.619, 1409.904 324.226 C 1405.282 323.989, 1401.162 324.141, 1400.750 324.564 M 879.474 330.593 C 878.938 330.727, 876.826 331.116, 874.779 331.458 C 863.680 333.313, 857.538 348.217, 863.121 359.750 C 869.174 372.254, 887.569 373.480, 895.931 361.937 C 899.795 356.602, 899.838 355, 896.115 355 C 894.127 355, 892.711 355.792, 891.561 357.548 C 884.051 369.009, 867 363.837, 867 350.097 C 867 337.335, 881.747 332.014, 890.533 341.605 C 892.585 343.846, 894.552 345, 896.321 345 C 897.794 345, 899 344.724, 899 344.386 C 899 342.283, 894.032 335.565, 891.167 333.794 C 887.941 331.800, 881.598 330.064, 879.474 330.593 M 961 331.028 C 953.466 332.351, 948.655 336.522, 946.153 343.899 C 942.782 353.837, 947.876 364.878, 957.535 368.566 C 965.663 371.670, 976.044 368.761, 980.583 362.107 L 983.043 358.500 979.912 358.178 C 977.860 357.968, 976.044 358.528, 974.641 359.804 C 969.719 364.279, 963.403 365.294, 957.967 362.483 C 955.246 361.076, 952 356.488, 952 354.050 C 952 353.360, 957.536 353, 968.136 353 L 984.272 353 983.637 348.365 C 981.983 336.301, 972.468 329.014, 961 331.028 M 815.713 331.621 C 815.321 332.013, 815 340.583, 815 350.667 L 815 369 818.250 368.981 C 821.210 368.964, 822.483 367.749, 832.500 355.385 L 843.500 341.808 843.778 355.404 L 844.056 369 847.028 369 L 850 369 850 350 L 850 331 847.498 331 C 845.502 331, 842.725 333.753, 833.748 344.633 L 822.500 358.267 822 344.883 L 821.500 331.500 818.963 331.204 C 817.567 331.041, 816.104 331.229, 815.713 331.621 M 905 334 L 905 337 912 337 L 919 337 919 353 L 919 369 922 369 L 925 369 925 353 L 925 337 932 337 L 939 337 939 334 L 939 331 922 331 L 905 331 905 334 M 994.667 331.667 C 994.300 332.033, 994 340.583, 994 350.667 L 994 369 996.972 369 L 999.944 369 1000.222 355.418 L 1000.500 341.836 1006.500 350.406 C 1014.431 361.735, 1015.522 361.775, 1023 351.014 L 1028.500 343.100 1028.779 356.050 L 1029.058 369 1032.551 369 L 1036.044 369 1035.772 350.250 L 1035.500 331.500 1032.862 331.194 C 1030.531 330.924, 1029.371 332.109, 1022.862 341.406 C 1018.813 347.191, 1015.275 351.922, 1015 351.919 C 1014.725 351.917, 1011.157 347.209, 1007.070 341.457 C 1001.572 333.717, 999.081 331, 997.487 331 C 996.303 331, 995.033 331.300, 994.667 331.667 M 1049.667 331.667 C 1049.300 332.033, 1049 340.583, 1049 350.667 L 1049 369 1059.032 369 C 1073.970 369, 1078.933 366.181, 1079.701 357.260 C 1080.519 347.766, 1074.614 343, 1062.032 343 L 1055 343 1055 337 C 1055 331.381, 1054.852 331, 1052.667 331 C 1051.383 331, 1050.033 331.300, 1049.667 331.667 M 1089.713 331.621 C 1089.321 332.013, 1089 340.583, 1089 350.667 L 1089 369 1092.522 369 L 1096.044 369 1095.772 350.250 L 1095.500 331.500 1092.963 331.204 C 1091.567 331.041, 1090.104 331.229, 1089.713 331.621 M 1131 332.578 C 1131 337.989, 1128.762 358.883, 1127.982 360.750 C 1127.302 362.380, 1126.210 363, 1124.021 363 L 1121 363 1121 371 L 1121 379 1124 379 C 1126.933 379, 1127 378.889, 1127 374 L 1127 369 1143.500 369 L 1160 369 1160 374 C 1160 378.889, 1160.067 379, 1163 379 L 1166 379 1166 371 L 1166 363 1162.500 363 L 1159 363 1159 347 L 1159 331 1145 331 C 1132.915 331, 1131 331.216, 1131 332.578 M 1178.558 332.250 C 1178.349 332.938, 1177.716 339.495, 1177.151 346.823 C 1176.586 354.150, 1175.591 360.787, 1174.940 361.573 C 1174.288 362.358, 1172.685 363, 1171.378 363 C 1169.402 363, 1169 363.508, 1169 366 C 1169 368.774, 1169.269 369, 1172.577 369 C 1175.154 369, 1176.930 368.224, 1178.930 366.224 C 1181.914 363.240, 1182.419 361.012, 1183.574 345.750 L 1184.237 337 1192.618 337 L 1201 337 1201 353 L 1201 369 1204 369 L 1207 369 1207 350 L 1207 331 1192.969 331 C 1182.613 331, 1178.838 331.327, 1178.558 332.250 M 1228.500 331.929 C 1221.413 333.639, 1218 337.747, 1218 344.568 C 1218 347.512, 1218.787 349.023, 1221.991 352.226 L 1225.982 356.217 1224.167 358.858 C 1223.168 360.311, 1221.336 363.188, 1220.094 365.250 L 1217.837 369 1221.403 369 C 1224.707 369, 1225.273 368.519, 1229.106 362.450 L 1233.242 355.900 1237.871 356.200 L 1242.500 356.500 1242.798 362.750 C 1243.092 368.938, 1243.125 369, 1246.048 369 L 1249 369 1249 350 L 1249 331 1240.250 331.102 C 1235.438 331.159, 1230.150 331.531, 1228.500 331.929 M 960.333 337.097 C 957.004 338.061, 952 343.153, 952 345.577 C 952 346.732, 954.355 347, 964.500 347 C 978.216 347, 978.873 346.651, 974.832 341.514 C 972.710 338.816, 967.328 335.911, 964.782 336.090 C 964.077 336.140, 962.075 336.593, 960.333 337.097 M 1136.601 341.250 C 1136.314 343.587, 1135.805 348.809, 1135.469 352.852 C 1135.133 356.896, 1134.617 360.834, 1134.322 361.602 C 1133.886 362.739, 1135.577 363, 1143.393 363 L 1153 363 1153 350 L 1153 337 1145.061 337 L 1137.123 337 1136.601 341.250 M 1228.242 338.034 C 1225.023 339.327, 1223.379 343.342, 1224.795 346.449 C 1226.119 349.356, 1232.031 351.261, 1238.310 350.805 L 1242.500 350.500 1242.796 343.750 L 1243.091 337 1236.796 337.063 C 1233.333 337.098, 1229.484 337.535, 1228.242 338.034 M 1400 354.594 L 1400 363.187 1410.090 362.844 C 1419.273 362.531, 1420.351 362.288, 1422.090 360.139 C 1424.158 357.583, 1424.585 352.961, 1423.021 350.039 C 1421.562 347.313, 1416.631 346, 1407.851 346 L 1400 346 1400 354.594 M 1055 356 L 1055 363 1062.311 363 C 1068.287 363, 1070.023 362.628, 1071.811 360.961 C 1074.692 358.278, 1074.586 354.495, 1071.545 351.455 C 1069.404 349.313, 1068.192 349, 1062.045 349 L 1055 349 1055 356" stroke="none" fill="black" fill-rule="evenodd"/>
	<path fill-opacity="0.633" d="M 473.500 51.417 C 466.745 54.322, 458.940 65.729, 451.447 83.642 C 447.985 91.920, 447.239 92.971, 443.562 94.754 L 439.500 96.724 428 93.746 C 413.189 89.911, 396.458 89.316, 391.292 92.441 C 387.472 94.752, 385.512 98.919, 386.463 102.708 C 386.842 104.219, 389.593 108.938, 392.576 113.195 C 397.100 119.651, 398 121.649, 398 125.235 L 398 129.534 384.250 136.368 C 352.468 152.164, 318.623 173.676, 285.098 199.389 C 263.139 216.231, 235.652 227.794, 204.096 233.466 C 192.903 235.478, 172.700 236.771, 161.328 236.203 L 153.155 235.795 151.500 228.148 C 147.976 211.860, 136.731 194.274, 122.823 183.299 C 109.965 173.152, 88.887 161.644, 84.165 162.193 C 81.056 162.554, 78.892 166.559, 74.141 180.738 C 68.689 197.011, 67.494 204.771, 67.556 223.500 C 67.610 239.861, 68.677 247.240, 72.401 257 C 72.820 258.097, 71.030 259.410, 65.737 261.887 C 51.522 268.541, 30.890 292.811, 16.983 319.239 C 13.481 325.893, 12.062 329.620, 12.502 331.006 C 14.119 336.100, 40.012 342.008, 60.500 341.958 C 84.885 341.897, 102.393 335.533, 120.813 320.033 L 128.127 313.880 140.556 321.958 C 170.956 341.715, 212.320 362.640, 242.500 373.527 C 245.250 374.519, 247.856 375.635, 248.292 376.007 C 248.727 376.379, 247.939 380.631, 246.541 385.456 C 241.541 402.711, 239.367 430.223, 242.634 434.888 C 244.093 436.970, 244.790 437.153, 249.107 436.580 C 251.768 436.227, 259.245 434.593, 265.722 432.948 C 306.536 422.587, 336.880 408.741, 358 390.843 C 364.098 385.675, 364.995 385.256, 372.500 384.075 C 406.950 378.650, 460.208 364.563, 480.874 355.409 C 482.729 354.587, 484.346 354.046, 484.466 354.207 C 484.587 354.368, 486.342 358.826, 488.367 364.112 C 492.135 373.951, 501.248 392.563, 507.794 403.789 C 510.044 407.648, 512.307 410.290, 513.652 410.627 C 519.750 412.158, 536.774 399.818, 545.461 387.570 C 556.954 371.367, 567.126 341.169, 570.581 313 C 571.251 307.534, 571.329 307.430, 583.184 296.108 C 603.213 276.981, 615.027 259.699, 620.854 241 C 622.622 235.328, 625 220.152, 625 214.545 C 625 200.611, 618.960 178.846, 610.320 161.641 C 603.495 148.053, 597.421 139.367, 588.527 130.478 C 569.222 111.184, 547.875 102.471, 514.799 100.386 L 504.098 99.712 505.549 96.906 C 506.347 95.362, 507 92.449, 507 90.432 C 507 86.623, 506.569 86.094, 495.248 76 C 492.014 73.116, 490.860 70.995, 488.693 63.954 C 485.099 52.276, 480.440 48.432, 473.500 51.417 M 865.238 135.043 C 843.180 139, 824.190 152.656, 815.117 171.087 C 812.839 175.714, 810.424 181.863, 809.751 184.750 L 808.527 190 797.763 190 L 787 190 787 163.500 L 787 137 771.500 137 L 756 137 756 206 L 756 275 771.500 275 L 787 275 787 247.466 L 787 219.932 797.638 220.216 L 808.276 220.500 809.643 226 C 811.574 233.767, 818.111 246.597, 823.188 252.586 C 837.209 269.123, 855.714 277.111, 880 277.111 C 900.067 277.111, 915.481 271.946, 929.121 260.651 C 945.510 247.080, 953.730 226.777, 952.666 202.500 C 951.727 181.100, 946.493 168.427, 933.032 154.972 C 918.764 140.709, 905.215 135.160, 883 134.481 C 876.125 134.271, 868.132 134.524, 865.238 135.043 M 979 206 L 979 275 994.500 275 L 1010 275 1010 247 L 1010 219 1037 219 L 1064 219 1064 247 L 1064 275 1079.500 275 L 1095 275 1095 206 L 1095 137 1079.500 137 L 1064 137 1064 163.500 L 1064 190 1037 190 L 1010 190 1010 163.500 L 1010 137 994.500 137 L 979 137 979 206 M 1129 206 L 1129 275 1142.317 275 L 1155.634 275 1186.067 232.257 L 1216.500 189.514 1216.761 232.257 L 1217.021 275 1232.511 275 L 1248 275 1248 206 L 1248 137 1234.250 137.024 L 1220.500 137.048 1190.500 179.130 L 1160.500 221.213 1160.239 179.106 L 1159.978 137 1144.489 137 L 1129 137 1129 206 M 1411.500 159.472 C 1403.498 162.373, 1400.276 170.314, 1403.836 178.362 C 1406.253 183.825, 1410.315 186.205, 1417.133 186.152 C 1425.885 186.084, 1431 181.049, 1431 172.500 C 1431 169.920, 1430.264 166.563, 1429.364 165.040 C 1426.066 159.456, 1418.258 157.023, 1411.500 159.472 M 872 164.142 C 868.975 164.642, 863.800 166.320, 860.500 167.870 C 836.686 179.059, 830.559 214.581, 848.889 235.186 C 859.362 246.959, 879.873 251.156, 896.500 244.930 C 904.754 241.839, 914.710 231.947, 918.069 223.500 C 920.113 218.360, 920.458 215.773, 920.477 205.448 C 920.500 193.505, 920.466 193.328, 916.728 185.763 C 910.619 173.403, 900.877 166.291, 887 164.060 C 879.699 162.886, 879.601 162.887, 872 164.142 M 1336.270 196.988 C 1330.030 198.317, 1323.888 201.281, 1319.635 205.016 C 1315.719 208.454, 1311.462 215.724, 1310.853 220.014 L 1310.500 222.500 1320.345 222.787 L 1330.189 223.075 1334.345 218.628 C 1337.724 215.013, 1339.373 214.053, 1343.175 213.489 C 1348.256 212.735, 1354.227 214.158, 1357.388 216.876 C 1359.730 218.890, 1362 224.103, 1362 227.468 L 1362 230 1345.182 230 C 1324.033 230, 1319.515 231.117, 1312.841 238 C 1309.037 241.923, 1307.961 243.869, 1306.978 248.607 C 1304.597 260.074, 1309.470 270.170, 1319.723 275.009 C 1330.725 280.202, 1350.388 278.404, 1359.615 271.360 C 1362.036 269.512, 1364.185 268, 1364.390 268 C 1364.595 268, 1365.272 270.025, 1365.896 272.500 L 1367.029 277 1375.596 277 L 1384.163 277 1383.818 248.750 C 1383.488 221.649, 1383.379 220.288, 1381.130 215.286 C 1378.019 208.370, 1370.930 201.866, 1363.449 199.066 C 1356.752 196.559, 1343.158 195.520, 1336.270 196.988 M 1406 237.500 L 1406 277 1417 277 L 1428 277 1428 237.500 L 1428 198 1417 198 L 1406 198 1406 237.500 M 1334.500 244.945 C 1328.485 247.407, 1326.864 254.318, 1331.268 258.723 C 1333.239 260.694, 1335.160 261.432, 1339.193 261.766 C 1351.202 262.762, 1358.813 257.561, 1361.600 246.456 L 1362.217 244 1349.358 244.063 C 1342.286 244.098, 1335.600 244.495, 1334.500 244.945 M 1272.500 252.954 C 1263.582 256.643, 1262.586 271.370, 1270.920 276.294 C 1274.505 278.411, 1282.120 278.507, 1286.033 276.483 C 1294.064 272.330, 1294.020 258.396, 1285.960 253.636 C 1283.048 251.915, 1275.888 251.553, 1272.500 252.954 M 768.493 320.351 C 755.819 326.253, 750.690 341.568, 756.806 355.249 C 760.874 364.349, 769.199 369.399, 780 369.320 C 790.056 369.245, 798.047 364.748, 802.044 356.914 C 804.633 351.840, 804.519 350.995, 801.250 351.027 C 799.150 351.047, 797.937 351.966, 796.119 354.917 C 790.481 364.061, 776.975 366.391, 767.737 359.812 C 761.334 355.253, 758.403 341.763, 762.238 334.500 C 764.301 330.591, 768.777 326.400, 772.315 325.064 C 780.379 322.017, 791.375 325.185, 795.500 331.743 C 797.045 334.200, 798.217 334.932, 800.656 334.961 C 803.443 334.995, 803.744 334.737, 803.225 332.754 C 802.256 329.047, 792.961 320.568, 788.384 319.216 C 781.820 317.277, 774.156 317.714, 768.493 320.351 M 1286.316 319.891 C 1281.394 322.188, 1279 326.166, 1279 332.050 C 1279 338.931, 1284.969 343.492, 1298.500 346.953 C 1300.700 347.515, 1303.963 348.874, 1305.750 349.973 C 1308.548 351.693, 1309 352.530, 1309 356 C 1309 359.473, 1308.551 360.303, 1305.750 362.011 C 1299.018 366.116, 1288.291 363.776, 1285.325 357.555 C 1283.953 354.679, 1283.071 354, 1280.706 354 C 1278.026 354, 1277.837 354.228, 1278.437 356.750 C 1281.492 369.607, 1301.795 374.405, 1311.611 364.589 C 1318.235 357.965, 1316.746 349.312, 1308.198 344.758 C 1305.614 343.382, 1300.219 341.279, 1296.209 340.086 C 1287.911 337.618, 1285 335.277, 1285 331.073 C 1285 325.304, 1293.760 321.663, 1301.521 324.205 C 1304.446 325.163, 1306.030 326.500, 1307.500 329.252 C 1309.094 332.235, 1310.080 332.995, 1312.358 332.997 C 1314.969 333, 1315.160 332.761, 1314.563 330.250 C 1313.744 326.802, 1311.183 323.225, 1307.637 320.579 C 1303.651 317.602, 1292.025 317.227, 1286.316 319.891 M 1328 344 L 1328 369 1330.978 369 L 1333.957 369 1334.228 349.829 L 1334.500 330.657 1342.500 342.809 C 1353.256 359.148, 1353.160 359.148, 1364.230 342.750 L 1372.500 330.500 1372.772 349.750 L 1373.043 369 1376.022 369 L 1379 369 1379 344 L 1379 319 1375.980 319 C 1373.199 319, 1372.201 320.148, 1363.382 333.499 C 1358.115 341.473, 1353.478 347.795, 1353.078 347.548 C 1352.678 347.301, 1348.158 340.777, 1343.033 333.050 C 1334.667 320.436, 1333.422 319, 1330.857 319 L 1328 319 1328 344 M 1394 344 L 1394 369 1405.750 368.956 C 1422.055 368.895, 1427.629 366.685, 1430.061 359.314 C 1431.751 354.194, 1430.406 349.119, 1426.344 345.288 C 1424.426 343.480, 1423.346 342, 1423.943 342 C 1424.541 342, 1425.921 340.538, 1427.011 338.750 C 1429.657 334.411, 1429.612 328.048, 1426.912 324.615 C 1423.135 319.814, 1420.183 319, 1406.550 319 L 1394 319 1394 344 M 1400 332 L 1400 340 1409.326 340 C 1417.781 340, 1418.854 339.784, 1420.826 337.686 C 1422.968 335.405, 1423.595 331.714, 1422.379 328.545 C 1421.217 325.517, 1416.435 324, 1408.050 324 L 1400 324 1400 332 M 871.500 332.881 C 866.742 335.066, 864.610 337.296, 862.538 342.254 C 859.297 350.012, 861.620 359.979, 867.903 365.265 C 876.568 372.556, 890.149 370.566, 896.135 361.126 C 899.639 355.601, 899.673 355, 896.483 355 C 894.795 355, 892.506 356.524, 889.532 359.628 C 885.117 364.236, 885.073 364.254, 879.480 363.790 C 874.864 363.407, 873.307 362.769, 870.749 360.210 C 868.134 357.595, 867.570 356.167, 867.229 351.298 C 866.889 346.445, 867.207 344.935, 869.177 342.036 C 873.984 334.962, 883.490 334.290, 889.779 340.579 C 893.296 344.096, 898 345.239, 898 342.577 C 898 340.294, 893.074 335.078, 888.914 332.956 C 884.079 330.490, 876.776 330.458, 871.500 332.881 M 956.500 332.423 C 949.526 335.549, 945.857 341.830, 945.857 350.645 C 945.857 363.794, 957.303 372.419, 970.160 368.957 C 974.344 367.830, 982 361.468, 982 359.118 C 982 356.894, 976.715 358.043, 973.347 361 C 970.455 363.539, 969.103 364, 964.542 364 C 960.248 364, 958.548 363.490, 956.171 361.491 C 953.234 359.019, 950.606 353.727, 951.748 352.585 C 952.070 352.263, 959.494 352, 968.246 352 L 984.159 352 983.508 348.750 C 981.716 339.803, 977.889 334.400, 971.685 332.061 C 967.836 330.610, 960.135 330.794, 956.500 332.423 M 816 350.566 L 816 369.133 818.723 368.816 C 820.854 368.569, 823.901 365.496, 832.723 354.695 L 844 340.890 844 354.945 L 844 369 847 369 L 850 369 850 350.500 L 850 332 847.114 332 C 844.618 332, 842.781 333.789, 833.504 345.250 C 827.606 352.538, 822.379 358.650, 821.890 358.833 C 821.397 359.018, 821 353.101, 821 345.583 L 821 332 818.500 332 L 816 332 816 350.566 M 905 334.500 C 905 336.929, 905.200 337, 912 337 L 919 337 919 353 L 919 369 922 369 L 925 369 925 353 L 925 337 932 337 C 938.800 337, 939 336.929, 939 334.500 L 939 332 922 332 L 905 332 905 334.500 M 994 350.437 L 994 369 996.972 369 L 999.944 369 1000.222 355.281 L 1000.500 341.562 1006.546 350.031 C 1010.320 355.319, 1013.379 358.615, 1014.688 358.805 C 1016.321 359.043, 1018.187 357.167, 1023.142 350.305 L 1029.500 341.500 1029.778 355.250 L 1030.056 369 1032.528 369 L 1035 369 1035 350.500 L 1035 332 1032.250 332.034 C 1029.912 332.062, 1028.458 333.562, 1022.545 342.049 C 1018.719 347.538, 1015.266 351.911, 1014.870 351.765 C 1014.475 351.619, 1011.050 347.225, 1007.259 342 C 1001.323 333.819, 999.925 332.456, 997.183 332.187 L 994 331.873 994 350.437 M 1049 350.608 L 1049 369.216 1060.433 368.853 C 1073.703 368.432, 1076.513 367.114, 1078.969 360.159 C 1080.261 356.501, 1080.261 355.494, 1078.969 351.797 C 1076.947 346.013, 1073.094 343.954, 1062.995 343.262 L 1055 342.714 1055 337.357 C 1055 332.071, 1054.960 332, 1052 332 L 1049 332 1049 350.608 M 1090 350.500 L 1090 369 1092.500 369 L 1095 369 1095 350.500 L 1095 332 1092.500 332 L 1090 332 1090 350.500 M 1130.991 334.750 C 1130.969 341.967, 1128.843 360.484, 1127.907 361.612 C 1127.328 362.310, 1125.649 363.020, 1124.177 363.191 C 1121.540 363.495, 1121.500 363.612, 1121.500 371 C 1121.500 378.438, 1121.523 378.503, 1124.250 378.816 C 1126.930 379.125, 1127 379.003, 1127 374.066 L 1127 369 1143.500 369 L 1160 369 1160 374 C 1160 378.904, 1160.058 379, 1163.042 379 L 1166.084 379 1165.792 371.250 L 1165.500 363.500 1162.250 363.187 L 1159 362.873 1159 347.437 L 1159 332 1145 332 L 1131 332 1130.991 334.750 M 1178.938 332.250 C 1178.905 332.387, 1178.305 338.663, 1177.606 346.195 C 1176.272 360.579, 1175.375 363, 1171.378 363 C 1169.402 363, 1169 363.508, 1169 366 C 1169 368.253, 1169.461 369, 1170.851 369 C 1174.615 369, 1179.101 366.705, 1180.455 364.087 C 1181.507 362.052, 1183.969 343.745, 1183.997 337.750 C 1183.998 337.337, 1187.825 337, 1192.500 337 L 1201 337 1201 353 L 1201 369 1204 369 L 1207 369 1207 350.500 L 1207 332 1193 332 C 1185.300 332, 1178.972 332.113, 1178.938 332.250 M 1226 332.704 C 1222.926 333.822, 1219.005 338.459, 1218.398 341.692 C 1217.591 345.992, 1219.445 350.421, 1223.321 353.454 L 1226.371 355.841 1223.855 359.671 C 1222.471 361.777, 1220.535 364.738, 1219.554 366.250 L 1217.770 369 1221.295 369 C 1224.547 369, 1225.140 368.495, 1228.926 362.500 L 1233.031 356 1238.015 356 L 1243 356 1243 362.500 L 1243 369 1246 369 L 1249 369 1249 350.500 L 1249 332 1238.250 332.079 C 1232.338 332.122, 1226.825 332.404, 1226 332.704 M 958.062 337.827 C 956.188 338.832, 953.827 341.195, 952.815 343.077 L 950.975 346.500 957.444 346.795 C 961.001 346.957, 967.088 346.957, 970.969 346.795 L 978.025 346.500 976.185 343.077 C 974.066 339.135, 968.890 336, 964.500 336 C 962.833 336, 959.936 336.822, 958.062 337.827 M 1136.548 338.250 C 1136.333 338.938, 1135.880 343.550, 1135.541 348.500 C 1135.202 353.450, 1134.667 358.962, 1134.351 360.750 L 1133.777 364 1143.389 364 L 1153 364 1153 350.500 L 1153 337 1144.969 337 C 1139.418 337, 1136.817 337.386, 1136.548 338.250 M 1227.500 338.195 C 1224.799 339.727, 1224.033 341.023, 1224.015 344.095 C 1223.989 348.519, 1227.254 350.423, 1235.588 350.844 L 1243 351.219 1243 344.109 L 1243 337 1236.250 337.030 C 1232.537 337.047, 1228.600 337.571, 1227.500 338.195 M 1400 354.500 L 1400 363 1409.444 363 C 1417.939 363, 1419.166 362.762, 1421.644 360.630 C 1423.743 358.824, 1424.400 357.363, 1424.400 354.500 C 1424.400 351.637, 1423.743 350.176, 1421.644 348.370 C 1419.166 346.238, 1417.939 346, 1409.444 346 L 1400 346 1400 354.500 M 1055 356 L 1055 363 1062.500 363 C 1071.094 363, 1074 361.231, 1074 356 C 1074 350.769, 1071.094 349, 1062.500 349 L 1055 349 1055 356" stroke="none" fill="black" fill-rule="evenodd"/>
	<path fill-opacity="0.930" d="M 467.489 56.467 C 463.546 60.506, 460.580 65.141, 456.131 74.217 C 452.820 80.973, 449.807 87.757, 449.436 89.294 C 448.941 91.342, 447.440 92.757, 443.805 94.599 C 439.034 97.016, 438.673 97.054, 434.174 95.617 C 428.758 93.886, 415.990 91.375, 407.883 90.446 C 399.596 89.497, 391.665 91.421, 388.535 95.140 C 384.484 99.955, 385.049 101.976, 394.147 115.220 C 397.797 120.533, 398.330 122.144, 398.115 127.208 C 398.011 129.664, 396.629 130.605, 383.250 137.333 C 370.872 143.558, 355.083 152.144, 349 155.956 C 348.175 156.473, 344.350 158.803, 340.500 161.133 C 326.590 169.552, 304.186 185.053, 289.683 196.294 C 255.099 223.097, 217.072 236.002, 171.621 236.359 C 151.200 236.520, 153.143 237.471, 150.468 226 C 146.161 207.525, 133.276 190.345, 113.823 177.136 C 105.476 171.469, 87.469 162.057, 84.905 162.022 C 82.526 161.989, 80.560 164.742, 77.596 172.258 C 69.968 191.597, 67.545 203.829, 67.546 223 C 67.547 238.405, 67.861 240.513, 72.548 256.617 C 73.077 258.437, 72.274 259.159, 66.832 261.753 C 58.632 265.661, 50.119 272.683, 42.255 282.024 C 29.917 296.680, 13 324.201, 13 329.618 C 13 332.674, 15.793 334.350, 25.039 336.844 C 63.834 347.310, 97.320 341.184, 120.996 319.290 L 127.711 313.081 132.605 316.423 C 165.254 338.717, 212.426 362.743, 248.239 375.318 C 249.702 375.832, 249.807 376.370, 248.901 378.714 C 244.814 389.285, 240.366 418.339, 241.234 428.801 C 241.877 436.562, 243.327 437.614, 251.186 436.021 C 256.938 434.855, 269.304 431.782, 279.500 428.985 C 310.027 420.611, 339.534 406.059, 358.447 390.050 C 362.278 386.807, 365.657 384.820, 367.947 384.464 C 383.522 382.040, 409.206 376.745, 421.947 373.331 C 427.201 371.923, 433.525 370.412, 436 369.973 C 440.594 369.158, 463.680 361.695, 474.500 357.528 C 485.431 353.318, 484.326 352.933, 487.990 362.226 C 495.495 381.260, 509.044 407.328, 512.666 409.701 C 514.783 411.088, 515.454 410.975, 521.232 408.254 C 543.988 397.538, 559.937 369.686, 567.940 326.685 C 568.983 321.083, 570.139 314.250, 570.511 311.500 C 570.882 308.750, 571.931 305.825, 572.843 305 C 573.754 304.175, 577.612 300.800, 581.416 297.500 C 593.972 286.608, 606.627 270.921, 613.684 257.500 C 626.997 232.185, 627.635 202.712, 615.504 173.500 C 603.225 143.931, 586.209 124.020, 563.320 112.437 C 549.734 105.562, 534.464 101.879, 513.699 100.471 C 506.890 100.009, 504.046 99.454, 504.384 98.653 C 504.651 98.019, 505.425 95.797, 506.104 93.715 C 507.880 88.267, 505.665 84.206, 498.131 79.089 C 492.344 75.159, 492.080 74.784, 489.498 66.808 C 484.994 52.895, 483.433 51, 476.479 51 C 473.372 51, 472.030 51.816, 467.489 56.467 M 867.477 134.920 C 839.395 139.430, 819.755 155.766, 810.974 181.916 L 808.091 190.500 797.545 190.784 L 787 191.068 787 164.034 L 787 137 772 137 L 757 137 757 206 L 757 275 772 275 L 787 275 787 246.966 L 787 218.932 797.626 219.216 L 808.253 219.500 810.060 226.454 C 815.871 248.811, 832.493 266.017, 855.833 273.833 C 862.754 276.150, 865.056 276.405, 879.500 276.450 C 897.566 276.506, 904.198 275.067, 917.500 268.205 C 927.220 263.191, 939.536 250.887, 944.276 241.457 C 950.919 228.242, 952.500 221.267, 952.428 205.500 C 952.373 193.577, 951.998 190.311, 949.900 183.487 C 942.615 159.785, 926.189 143.876, 901.893 136.992 C 893.670 134.661, 875.787 133.585, 867.477 134.920 M 979 206 L 979 275 994 275 L 1009 275 1009 246.984 L 1009 218.968 1036.750 219.234 L 1064.500 219.500 1064.766 247.250 L 1065.032 275 1080.016 275 L 1095 275 1095 206 L 1095 137 1080.017 137 L 1065.033 137 1064.767 163.250 L 1064.500 189.500 1036.750 189.766 L 1009 190.032 1009 163.516 L 1009 137 994 137 L 979 137 979 206 M 1129 206 L 1129 275 1142.250 274.955 L 1155.500 274.910 1185.500 232.523 C 1202 209.210, 1215.838 190.106, 1216.250 190.068 C 1216.662 190.031, 1217 209.125, 1217 232.500 L 1217 275 1232.500 275 L 1248 275 1248 206 L 1248 137 1234.561 137 L 1221.122 137 1190.811 179.250 L 1160.500 221.500 1160.239 179.250 L 1159.978 137 1144.489 137 L 1129 137 1129 206 M 1408.873 160.684 C 1404.938 163.126, 1403 167.164, 1403 172.919 C 1403 177.317, 1403.465 178.537, 1406.335 181.669 C 1409.228 184.825, 1410.400 185.369, 1415.172 185.764 C 1421.798 186.314, 1426.176 184.400, 1429.040 179.701 C 1432.945 173.297, 1430.396 163.531, 1423.970 160.279 C 1420.471 158.509, 1412.013 158.735, 1408.873 160.684 M 868.760 164.558 C 860.754 166.498, 855.506 169.399, 849.952 174.952 C 833.200 191.705, 834.041 221.869, 851.711 238.019 C 859.748 245.364, 865.969 247.444, 880 247.475 C 890.843 247.499, 891.878 247.321, 898.123 244.362 C 907.261 240.032, 912.345 235.123, 916.486 226.629 C 925.002 209.160, 922.555 188.992, 910.336 175.928 C 900.148 165.036, 884.473 160.749, 868.760 164.558 M 1338.404 197.049 C 1326.989 198.539, 1317.041 205.292, 1312.933 214.339 C 1309.504 221.892, 1309.622 222, 1321.339 222 C 1331.451 222, 1331.705 221.944, 1332.841 219.451 C 1333.498 218.008, 1335.846 216.064, 1338.251 214.973 C 1349.055 210.069, 1360.586 215.147, 1361.732 225.313 L 1362.232 229.750 1343.866 230.199 C 1327.601 230.596, 1324.913 230.904, 1320.368 232.896 C 1311.171 236.926, 1306.800 243.813, 1306.800 254.275 C 1306.800 269.957, 1319.813 279.116, 1340.122 277.728 C 1348.178 277.177, 1355.001 274.762, 1360.628 270.470 C 1362.409 269.111, 1364.115 268, 1364.419 268 C 1364.723 268, 1365.481 270.025, 1366.104 272.500 L 1367.237 277 1375.732 277 L 1384.226 277 1383.762 249.250 C 1383.357 225.092, 1383.051 220.868, 1381.398 216.618 C 1377.367 206.250, 1367.734 199.136, 1354.910 197.055 C 1347.828 195.906, 1347.164 195.906, 1338.404 197.049 M 1406 237.500 L 1406 277 1417 277 L 1428 277 1428 237.500 L 1428 198 1417 198 L 1406 198 1406 237.500 M 1332.888 245.500 C 1329.097 247.560, 1327.410 252.161, 1329.020 256.047 C 1330.677 260.048, 1334.948 262.143, 1341.450 262.143 C 1350.545 262.143, 1356.894 258.523, 1360.119 251.500 C 1363.594 243.932, 1363.690 243.995, 1348.750 244.040 C 1339.263 244.069, 1334.758 244.483, 1332.888 245.500 M 1270.898 254.283 C 1268.713 255.750, 1266.975 258.071, 1266.031 260.783 C 1264.739 264.492, 1264.739 265.508, 1266.031 269.217 C 1268.180 275.386, 1272.898 278.307, 1279.819 277.751 C 1287.079 277.168, 1291.099 273.301, 1291.680 266.343 C 1292.165 260.539, 1290.706 257.392, 1286.088 254.280 C 1281.582 251.244, 1275.420 251.245, 1270.898 254.283 M 770.748 319.366 C 760.624 323.144, 754.692 332.262, 754.765 343.933 C 754.862 359.434, 764.494 369.125, 779.805 369.125 C 788.690 369.125, 795.967 365.467, 800.660 358.641 C 804.712 352.746, 804.780 351.989, 801.250 352.038 C 799.201 352.066, 797.810 353.074, 795.794 355.990 C 792.538 360.699, 788.567 362.909, 781.953 363.692 C 765.713 365.615, 755.051 349.100, 762.750 333.946 C 768.980 321.682, 785.118 319.896, 794.662 330.413 C 797.582 333.630, 799.605 335, 801.438 335 L 804.051 335 802.412 331.750 C 800.073 327.116, 796.125 323.138, 791.500 320.759 C 786.417 318.143, 775.914 317.438, 770.748 319.366 M 1288.352 319.092 C 1286.620 319.594, 1283.757 321.651, 1281.990 323.664 C 1279.066 326.994, 1278.820 327.779, 1279.262 332.375 C 1279.923 339.252, 1283.495 342.139, 1296.199 346.060 C 1309.488 350.163, 1312.902 354.515, 1307.635 360.638 C 1305.601 363.003, 1304.376 363.438, 1298.885 363.748 C 1291.394 364.171, 1286.521 361.840, 1284.675 356.951 C 1283.807 354.651, 1282.944 354, 1280.762 354 C 1278.213 354, 1278.021 354.246, 1278.627 356.750 C 1280.498 364.489, 1287.555 369.125, 1297.465 369.125 C 1309.109 369.125, 1315 364.637, 1315 355.765 C 1315 348.344, 1311.334 345.115, 1298.368 341.114 C 1292.843 339.409, 1287.575 337.188, 1286.661 336.178 C 1284.305 333.575, 1284.549 328.498, 1287.146 326.078 C 1289.927 323.488, 1296.849 322.465, 1301.409 323.970 C 1305.036 325.167, 1309 329.169, 1309 331.635 C 1309 332.424, 1310.054 333, 1311.500 333 C 1317.114 333, 1312.756 323.153, 1305.729 319.964 C 1301.226 317.919, 1293.703 317.542, 1288.352 319.092 M 1328 344 L 1328 369 1331 369 L 1334 369 1334 349.256 L 1334 329.512 1342.512 342.256 C 1349.385 352.547, 1351.475 355, 1353.371 355 C 1355.271 355, 1357.324 352.578, 1364.110 342.332 L 1372.500 329.664 1372.771 349.332 L 1373.042 369 1376.021 369 L 1379 369 1379 344 L 1379 319 1376.143 319 C 1373.571 319, 1372.354 320.422, 1363.942 333.250 C 1358.804 341.087, 1354.314 347.853, 1353.966 348.284 C 1353.617 348.715, 1348.870 342.312, 1343.416 334.055 C 1334.653 320.788, 1333.180 319.040, 1330.750 319.021 L 1328 319 1328 344 M 1394 344.118 L 1394 369.236 1406.750 368.814 C 1426.295 368.167, 1430.685 365.005, 1430.111 351.990 C 1430 349.474, 1426.248 344.583, 1423.803 343.768 C 1422.913 343.471, 1423.530 342.160, 1425.750 339.632 C 1429.636 335.206, 1430.057 330.245, 1426.974 325.190 C 1423.923 320.186, 1419.912 319, 1406.032 319 L 1394 319 1394 344.118 M 1400 332.500 L 1400 341 1407.351 341 C 1419.452 341, 1423 338.878, 1423 331.638 C 1423 325.825, 1419.623 324, 1408.865 324 L 1400 324 1400 332.500 M 872.500 332.423 C 858.076 338.888, 857.538 361.731, 871.671 367.636 C 875.954 369.426, 885.366 369.379, 888.901 367.551 C 892.311 365.788, 898 359.481, 898 357.465 C 898 355.189, 893.256 355.652, 891.971 358.054 C 890.223 361.320, 884.931 363.992, 880.200 363.996 C 871.590 364.004, 866.769 358.919, 866.769 349.827 C 866.769 341.107, 872.783 335.567, 881.438 336.316 C 885.564 336.672, 886.923 337.339, 889.701 340.371 C 891.816 342.678, 893.933 344, 895.513 344 C 898.579 344, 898.614 343.219, 895.742 338.898 C 891.295 332.207, 880.002 329.060, 872.500 332.423 M 957.030 332.583 C 952.459 334.566, 950.192 336.707, 947.894 341.210 C 945.329 346.236, 945.416 354.161, 948.096 359.698 C 953.507 370.875, 971.245 372.629, 979.512 362.804 C 980.880 361.177, 982 359.431, 982 358.923 C 982 357.009, 976.662 358.072, 974.487 360.419 C 969.752 365.528, 959.623 365.680, 954.908 360.713 C 952.871 358.567, 951 354.843, 951 352.935 C 951 352.394, 957.743 352, 967 352 L 983 352 982.978 348.750 C 982.952 344.876, 980.046 338.178, 977.355 335.788 C 972.190 331.202, 963.407 329.817, 957.030 332.583 M 816 350.500 L 816 369 818.374 369 C 820.217 369, 823.290 365.873, 832.124 355.006 C 838.381 347.310, 843.837 341.010, 844.250 341.006 C 844.663 341.003, 845 347.300, 845 355 L 845 369 847.500 369 L 850 369 850 350.500 L 850 332 847.250 332.022 C 844.930 332.040, 842.701 334.260, 833 346.210 L 821.500 360.377 821.223 346.188 L 820.945 332 818.473 332 L 816 332 816 350.500 M 905 334.500 C 905 336.929, 905.200 337, 912 337 L 919 337 919 353 L 919 369 922 369 L 925 369 925 353 L 925 337 932 337 C 938.800 337, 939 336.929, 939 334.500 L 939 332 922 332 L 905 332 905 334.500 M 995 350.500 L 995 369 997.500 369 L 1000 369 1000 355.441 C 1000 347.115, 1000.367 342.109, 1000.952 342.470 C 1001.475 342.794, 1004.431 346.645, 1007.521 351.029 C 1010.960 355.909, 1013.829 359, 1014.921 359 C 1016.026 359, 1018.945 355.784, 1022.602 350.537 C 1025.846 345.882, 1028.838 342.057, 1029.250 342.037 C 1029.662 342.017, 1030 348.075, 1030 355.500 L 1030 369 1032.500 369 L 1035 369 1035 350.500 L 1035 332 1032.568 332 C 1030.653 332, 1028.812 333.858, 1023.900 340.750 C 1013.948 354.714, 1015.823 354.519, 1007.280 342.483 C 1001.337 334.111, 999.352 332, 997.420 332 L 995 332 995 350.500 M 1050 350.631 L 1050 369.262 1060.250 368.797 C 1073.974 368.175, 1077.222 366.394, 1079.510 358.234 C 1080.450 354.878, 1078.276 349.410, 1074.857 346.533 C 1072.157 344.261, 1070.978 344, 1063.423 344 L 1055 344 1055 338 C 1055 332.267, 1054.889 332, 1052.500 332 L 1050 332 1050 350.631 M 1090 350.500 L 1090 369 1092.500 369 L 1095 369 1095 350.500 L 1095 332 1092.500 332 L 1090 332 1090 350.500 M 1131.678 332.750 C 1131.436 333.163, 1130.927 338.450, 1130.547 344.500 C 1129.587 359.763, 1128.666 362.917, 1124.952 363.660 C 1122.003 364.249, 1122 364.257, 1122 371.625 C 1122 378.825, 1122.059 379, 1124.500 379 C 1126.833 379, 1127 378.667, 1127 374 L 1127 369 1143.500 369 L 1160 369 1160 374 C 1160 378.667, 1160.167 379, 1162.500 379 C 1164.944 379, 1165 378.833, 1165 371.500 L 1165 364 1162 364 L 1159 364 1159 348 L 1159 332 1145.559 332 C 1138.166 332, 1131.920 332.337, 1131.678 332.750 M 1178.529 338.750 C 1176.723 358.088, 1176.147 361.419, 1174.389 362.705 C 1173.415 363.417, 1171.804 364, 1170.809 364 C 1169.526 364, 1169 364.759, 1169 366.611 C 1169 369.083, 1169.200 369.186, 1172.750 368.543 C 1179.422 367.333, 1181.140 364.569, 1182.196 353.342 C 1182.705 347.929, 1183.340 342.038, 1183.606 340.250 L 1184.091 337 1192.545 337 L 1201 337 1201 353 L 1201 369 1204 369 L 1207 369 1207 350.500 L 1207 332 1193.080 332 L 1179.159 332 1178.529 338.750 M 1225.500 333.386 C 1221.812 334.993, 1220.180 336.885, 1219.033 340.884 C 1217.651 345.703, 1219.527 350.788, 1223.566 353.171 C 1225.586 354.363, 1226.720 355.669, 1226.324 356.348 C 1225.954 356.982, 1223.913 360.087, 1221.789 363.250 L 1217.925 369 1221.244 369 C 1224.255 369, 1224.932 368.397, 1228.532 362.502 L 1232.500 356.005 1237.750 356.002 L 1243 356 1243 362.500 C 1243 368.767, 1243.090 369, 1245.500 369 L 1248 369 1248 350.500 L 1248 332 1238.250 332.039 C 1232.504 332.062, 1227.268 332.615, 1225.500 333.386 M 957.190 338.026 C 954.501 339.665, 951 345.005, 951 347.468 C 951 347.761, 957.075 348, 964.500 348 C 979.284 348, 979.463 347.912, 976.040 342.299 C 972.260 336.098, 963.579 334.130, 957.190 338.026 M 1135.278 348.750 C 1134.724 355.212, 1133.931 361.304, 1133.515 362.286 C 1132.812 363.945, 1133.498 364.052, 1143.129 363.786 L 1153.500 363.500 1153.779 350.250 L 1154.058 337 1145.171 337 L 1136.284 337 1135.278 348.750 M 1226.223 338.557 C 1224.707 339.618, 1224.005 341.129, 1224.015 343.307 C 1224.043 349.156, 1227.020 351, 1236.434 351 L 1243 351 1243 344 L 1243 337 1235.723 337 C 1230.754 337, 1227.740 337.494, 1226.223 338.557 M 1400 354.500 L 1400 363 1410 363 C 1418.624 363, 1420.272 362.728, 1421.975 361.025 C 1426.192 356.808, 1425.344 349.389, 1420.385 347.130 C 1419.022 346.508, 1413.877 346, 1408.953 346 L 1400 346 1400 354.500 M 1055.750 348.561 C 1055.338 348.986, 1055 352.693, 1055 356.798 L 1055 364.263 1062.506 363.781 C 1071.594 363.198, 1074 361.541, 1074 355.868 C 1074 352.895, 1073.445 351.682, 1071.500 350.408 C 1068.830 348.659, 1057.002 347.272, 1055.750 348.561" stroke="none" fill="black" fill-rule="evenodd"/>
</svg>